%TF.GenerationSoftware,KiCad,Pcbnew,8.0.5*%
%TF.CreationDate,2025-05-12T12:18:58+05:30*%
%TF.ProjectId,automation,6175746f-6d61-4746-996f-6e2e6b696361,rev?*%
%TF.SameCoordinates,Original*%
%TF.FileFunction,Paste,Top*%
%TF.FilePolarity,Positive*%
%FSLAX46Y46*%
G04 Gerber Fmt 4.6, Leading zero omitted, Abs format (unit mm)*
G04 Created by KiCad (PCBNEW 8.0.5) date 2025-05-12 12:18:58*
%MOMM*%
%LPD*%
G01*
G04 APERTURE LIST*
G04 Aperture macros list*
%AMRoundRect*
0 Rectangle with rounded corners*
0 $1 Rounding radius*
0 $2 $3 $4 $5 $6 $7 $8 $9 X,Y pos of 4 corners*
0 Add a 4 corners polygon primitive as box body*
4,1,4,$2,$3,$4,$5,$6,$7,$8,$9,$2,$3,0*
0 Add four circle primitives for the rounded corners*
1,1,$1+$1,$2,$3*
1,1,$1+$1,$4,$5*
1,1,$1+$1,$6,$7*
1,1,$1+$1,$8,$9*
0 Add four rect primitives between the rounded corners*
20,1,$1+$1,$2,$3,$4,$5,0*
20,1,$1+$1,$4,$5,$6,$7,0*
20,1,$1+$1,$6,$7,$8,$9,0*
20,1,$1+$1,$8,$9,$2,$3,0*%
G04 Aperture macros list end*
%ADD10RoundRect,0.250000X0.337500X0.475000X-0.337500X0.475000X-0.337500X-0.475000X0.337500X-0.475000X0*%
%ADD11RoundRect,0.250000X-0.350000X-0.450000X0.350000X-0.450000X0.350000X0.450000X-0.350000X0.450000X0*%
%ADD12RoundRect,0.250000X-0.337500X-0.475000X0.337500X-0.475000X0.337500X0.475000X-0.337500X0.475000X0*%
%ADD13RoundRect,0.250000X-1.000000X-0.650000X1.000000X-0.650000X1.000000X0.650000X-1.000000X0.650000X0*%
%ADD14RoundRect,0.250001X0.462499X0.624999X-0.462499X0.624999X-0.462499X-0.624999X0.462499X-0.624999X0*%
%ADD15RoundRect,0.250001X-0.462499X-0.624999X0.462499X-0.624999X0.462499X0.624999X-0.462499X0.624999X0*%
%ADD16RoundRect,0.200000X0.200000X0.275000X-0.200000X0.275000X-0.200000X-0.275000X0.200000X-0.275000X0*%
%ADD17RoundRect,0.200000X0.275000X-0.200000X0.275000X0.200000X-0.275000X0.200000X-0.275000X-0.200000X0*%
%ADD18RoundRect,0.250001X0.624999X-0.462499X0.624999X0.462499X-0.624999X0.462499X-0.624999X-0.462499X0*%
%ADD19RoundRect,0.200000X-0.200000X-0.275000X0.200000X-0.275000X0.200000X0.275000X-0.200000X0.275000X0*%
%ADD20RoundRect,0.200000X-0.275000X0.200000X-0.275000X-0.200000X0.275000X-0.200000X0.275000X0.200000X0*%
%ADD21RoundRect,0.250000X-0.325000X-0.450000X0.325000X-0.450000X0.325000X0.450000X-0.325000X0.450000X0*%
%ADD22RoundRect,0.250000X-0.312500X-0.625000X0.312500X-0.625000X0.312500X0.625000X-0.312500X0.625000X0*%
%ADD23RoundRect,0.250000X-0.450000X0.262500X-0.450000X-0.262500X0.450000X-0.262500X0.450000X0.262500X0*%
%ADD24RoundRect,0.225000X-0.375000X0.225000X-0.375000X-0.225000X0.375000X-0.225000X0.375000X0.225000X0*%
%ADD25RoundRect,0.250000X0.350000X0.450000X-0.350000X0.450000X-0.350000X-0.450000X0.350000X-0.450000X0*%
%ADD26RoundRect,0.150000X0.512500X0.150000X-0.512500X0.150000X-0.512500X-0.150000X0.512500X-0.150000X0*%
%ADD27RoundRect,0.075000X-0.910000X-0.225000X0.910000X-0.225000X0.910000X0.225000X-0.910000X0.225000X0*%
G04 APERTURE END LIST*
D10*
%TO.C,C1*%
X437812500Y-297600000D03*
X435737500Y-297600000D03*
%TD*%
D11*
%TO.C,FB1*%
X309812500Y-282200000D03*
X311812500Y-282200000D03*
%TD*%
D12*
%TO.C,C2*%
X444000000Y-297500000D03*
X446075000Y-297500000D03*
%TD*%
D13*
%TO.C,D13*%
X308500000Y-275400000D03*
X312500000Y-275400000D03*
%TD*%
D14*
%TO.C,D5*%
X309875000Y-235550000D03*
X306900000Y-235550000D03*
%TD*%
D13*
%TO.C,IC2*%
X374400000Y-292300000D03*
X378400000Y-292300000D03*
%TD*%
D15*
%TO.C,D16*%
X457625000Y-125300000D03*
X460600000Y-125300000D03*
%TD*%
D16*
%TO.C,R24*%
X385900000Y-125500000D03*
X384250000Y-125500000D03*
%TD*%
D15*
%TO.C,D3*%
X521622500Y-186470000D03*
X524597500Y-186470000D03*
%TD*%
%TO.C,D15*%
X491825000Y-125200000D03*
X494800000Y-125200000D03*
%TD*%
D17*
%TO.C,R6*%
X317540000Y-143620000D03*
X317540000Y-141970000D03*
%TD*%
D15*
%TO.C,D10*%
X381412500Y-285300000D03*
X384387500Y-285300000D03*
%TD*%
D16*
%TO.C,R1*%
X520200000Y-150920000D03*
X518550000Y-150920000D03*
%TD*%
D18*
%TO.C,D11*%
X360200000Y-291087500D03*
X360200000Y-288112500D03*
%TD*%
D19*
%TO.C,R28*%
X331075000Y-293700000D03*
X332725000Y-293700000D03*
%TD*%
D13*
%TO.C,D14*%
X309580000Y-290400000D03*
X313580000Y-290400000D03*
%TD*%
D18*
%TO.C,D4*%
X311940000Y-141795000D03*
X311940000Y-138820000D03*
%TD*%
D16*
%TO.C,R19*%
X488900000Y-125800000D03*
X487250000Y-125800000D03*
%TD*%
D20*
%TO.C,R17*%
X360200000Y-294275000D03*
X360200000Y-295925000D03*
%TD*%
D19*
%TO.C,R14*%
X364775000Y-296000000D03*
X366425000Y-296000000D03*
%TD*%
D16*
%TO.C,R25*%
X349900000Y-125300000D03*
X348250000Y-125300000D03*
%TD*%
D21*
%TO.C,F1*%
X309275000Y-270500000D03*
X311325000Y-270500000D03*
%TD*%
D13*
%TO.C,IC3*%
X402892500Y-285340000D03*
X406892500Y-285340000D03*
%TD*%
D16*
%TO.C,R22*%
X454015000Y-125700000D03*
X452365000Y-125700000D03*
%TD*%
D14*
%TO.C,D2*%
X512987500Y-285700000D03*
X510012500Y-285700000D03*
%TD*%
D22*
%TO.C,F2*%
X394737500Y-287200000D03*
X397662500Y-287200000D03*
%TD*%
D15*
%TO.C,D7*%
X494312500Y-285300000D03*
X497287500Y-285300000D03*
%TD*%
D22*
%TO.C,F3*%
X394437500Y-295600000D03*
X397362500Y-295600000D03*
%TD*%
D14*
%TO.C,D9*%
X437175000Y-289400000D03*
X434200000Y-289400000D03*
%TD*%
%TO.C,D20*%
X327337500Y-293750000D03*
X324362500Y-293750000D03*
%TD*%
D15*
%TO.C,D17*%
X436125000Y-125100000D03*
X439100000Y-125100000D03*
%TD*%
D23*
%TO.C,RV1*%
X317800000Y-288987500D03*
X317800000Y-290812500D03*
%TD*%
D16*
%TO.C,R23*%
X432100000Y-125600000D03*
X430450000Y-125600000D03*
%TD*%
D24*
%TO.C,D21*%
X367400000Y-288350000D03*
X367400000Y-291650000D03*
%TD*%
D25*
%TO.C,FB2*%
X444987500Y-289900000D03*
X442987500Y-289900000D03*
%TD*%
D19*
%TO.C,R12*%
X451950000Y-296400000D03*
X453600000Y-296400000D03*
%TD*%
%TO.C,R9*%
X501450000Y-285400000D03*
X503100000Y-285400000D03*
%TD*%
D15*
%TO.C,D8*%
X452512500Y-286000000D03*
X455487500Y-286000000D03*
%TD*%
D26*
%TO.C,IC1*%
X390137500Y-293150000D03*
X390137500Y-291250000D03*
X387862500Y-292200000D03*
%TD*%
D15*
%TO.C,D6*%
X309025000Y-285380000D03*
X312000000Y-285380000D03*
%TD*%
%TO.C,D1*%
X523425000Y-150900000D03*
X526400000Y-150900000D03*
%TD*%
D19*
%TO.C,R2*%
X517575000Y-285800000D03*
X519225000Y-285800000D03*
%TD*%
D15*
%TO.C,D12*%
X337512500Y-285100000D03*
X340487500Y-285100000D03*
%TD*%
D27*
%TO.C,U2*%
X417760000Y-286290000D03*
X417760000Y-287560000D03*
X417760000Y-288830000D03*
X417760000Y-290100000D03*
X422700000Y-290100000D03*
X422700000Y-288830000D03*
X422700000Y-287560000D03*
X422700000Y-286290000D03*
%TD*%
D15*
%TO.C,D19*%
X354525000Y-124900000D03*
X357500000Y-124900000D03*
%TD*%
D16*
%TO.C,R8*%
X319425000Y-294000000D03*
X317775000Y-294000000D03*
%TD*%
D15*
%TO.C,D18*%
X390125000Y-125300000D03*
X393100000Y-125300000D03*
%TD*%
D19*
%TO.C,R3*%
X521610000Y-191710000D03*
X523260000Y-191710000D03*
%TD*%
D16*
%TO.C,R7*%
X308600000Y-240000000D03*
X306950000Y-240000000D03*
%TD*%
D19*
%TO.C,R13*%
X429562500Y-292400000D03*
X431212500Y-292400000D03*
%TD*%
%TO.C,R18*%
X337475000Y-289000000D03*
X339125000Y-289000000D03*
%TD*%
M02*
