%TF.GenerationSoftware,KiCad,Pcbnew,8.0.5*%
%TF.CreationDate,2025-05-12T12:18:58+05:30*%
%TF.ProjectId,automation,6175746f-6d61-4746-996f-6e2e6b696361,rev?*%
%TF.SameCoordinates,Original*%
%TF.FileFunction,Other,User*%
%FSLAX46Y46*%
G04 Gerber Fmt 4.6, Leading zero omitted, Abs format (unit mm)*
G04 Created by KiCad (PCBNEW 8.0.5) date 2025-05-12 12:18:58*
%MOMM*%
%LPD*%
G01*
G04 APERTURE LIST*
%ADD10C,0.050000*%
%ADD11C,0.100000*%
G04 APERTURE END LIST*
D10*
%TO.C,C1*%
X434895000Y-296620000D02*
X438655000Y-296620000D01*
X434895000Y-298580000D02*
X434895000Y-296620000D01*
X438655000Y-296620000D02*
X438655000Y-298580000D01*
X438655000Y-298580000D02*
X434895000Y-298580000D01*
%TO.C,FB1*%
X308962500Y-281250000D02*
X312662500Y-281250000D01*
X308962500Y-283150000D02*
X308962500Y-281250000D01*
X312662500Y-281250000D02*
X312662500Y-283150000D01*
X312662500Y-283150000D02*
X308962500Y-283150000D01*
%TO.C,C2*%
X443157500Y-296520000D02*
X446917500Y-296520000D01*
X443157500Y-298480000D02*
X443157500Y-296520000D01*
X446917500Y-296520000D02*
X446917500Y-298480000D01*
X446917500Y-298480000D02*
X443157500Y-298480000D01*
%TO.C,D13*%
X307000000Y-273650000D02*
X314000000Y-273650000D01*
X307000000Y-277150000D02*
X307000000Y-273650000D01*
X314000000Y-273650000D02*
X314000000Y-277150000D01*
X314000000Y-277150000D02*
X307000000Y-277150000D01*
%TO.C,D5*%
X305937500Y-234430000D02*
X310837500Y-234430000D01*
X305937500Y-236670000D02*
X305937500Y-234430000D01*
X310837500Y-234430000D02*
X310837500Y-236670000D01*
X310837500Y-236670000D02*
X305937500Y-236670000D01*
%TO.C,IC2*%
X372900000Y-290550000D02*
X379900000Y-290550000D01*
X372900000Y-294050000D02*
X372900000Y-290550000D01*
X379900000Y-290550000D02*
X379900000Y-294050000D01*
X379900000Y-294050000D02*
X372900000Y-294050000D01*
%TO.C,D16*%
X456662500Y-124180000D02*
X461562500Y-124180000D01*
X456662500Y-126420000D02*
X456662500Y-124180000D01*
X461562500Y-124180000D02*
X461562500Y-126420000D01*
X461562500Y-126420000D02*
X456662500Y-126420000D01*
D11*
%TO.C,J8*%
X544300000Y-200800000D02*
X535200000Y-200800000D01*
X535200000Y-179880000D01*
X544300000Y-179880000D01*
X544300000Y-200800000D01*
G36*
X544300000Y-200800000D02*
G01*
X535200000Y-200800000D01*
X535200000Y-179880000D01*
X544300000Y-179880000D01*
X544300000Y-200800000D01*
G37*
D10*
%TO.C,R24*%
X383595000Y-124770000D02*
X386555000Y-124770000D01*
X383595000Y-126230000D02*
X383595000Y-124770000D01*
X386555000Y-124770000D02*
X386555000Y-126230000D01*
X386555000Y-126230000D02*
X383595000Y-126230000D01*
%TO.C,D3*%
X520660000Y-185350000D02*
X525560000Y-185350000D01*
X520660000Y-187590000D02*
X520660000Y-185350000D01*
X525560000Y-185350000D02*
X525560000Y-187590000D01*
X525560000Y-187590000D02*
X520660000Y-187590000D01*
%TO.C,D15*%
X490862500Y-124080000D02*
X495762500Y-124080000D01*
X490862500Y-126320000D02*
X490862500Y-124080000D01*
X495762500Y-124080000D02*
X495762500Y-126320000D01*
X495762500Y-126320000D02*
X490862500Y-126320000D01*
%TO.C,H1*%
X298640000Y-123970000D02*
G75*
G02*
X292540000Y-123970000I-3050000J0D01*
G01*
X292540000Y-123970000D02*
G75*
G02*
X298640000Y-123970000I3050000J0D01*
G01*
%TO.C,R6*%
X316810000Y-141315000D02*
X318270000Y-141315000D01*
X316810000Y-144275000D02*
X316810000Y-141315000D01*
X318270000Y-141315000D02*
X318270000Y-144275000D01*
X318270000Y-144275000D02*
X316810000Y-144275000D01*
%TO.C,D10*%
X380450000Y-284180000D02*
X385350000Y-284180000D01*
X380450000Y-286420000D02*
X380450000Y-284180000D01*
X385350000Y-284180000D02*
X385350000Y-286420000D01*
X385350000Y-286420000D02*
X380450000Y-286420000D01*
%TO.C,R1*%
X517895000Y-150190000D02*
X520855000Y-150190000D01*
X517895000Y-151650000D02*
X517895000Y-150190000D01*
X520855000Y-150190000D02*
X520855000Y-151650000D01*
X520855000Y-151650000D02*
X517895000Y-151650000D01*
%TO.C,D11*%
X359080000Y-287150000D02*
X361320000Y-287150000D01*
X359080000Y-292050000D02*
X359080000Y-287150000D01*
X361320000Y-287150000D02*
X361320000Y-292050000D01*
X361320000Y-292050000D02*
X359080000Y-292050000D01*
D11*
%TO.C,J12*%
X544200000Y-224700000D02*
X535100000Y-224700000D01*
X535100000Y-203780000D01*
X544200000Y-203780000D01*
X544200000Y-224700000D01*
G36*
X544200000Y-224700000D02*
G01*
X535100000Y-224700000D01*
X535100000Y-203780000D01*
X544200000Y-203780000D01*
X544200000Y-224700000D01*
G37*
D10*
%TO.C,R28*%
X330420000Y-292970000D02*
X333380000Y-292970000D01*
X330420000Y-294430000D02*
X330420000Y-292970000D01*
X333380000Y-292970000D02*
X333380000Y-294430000D01*
X333380000Y-294430000D02*
X330420000Y-294430000D01*
%TO.C,S2*%
X302047500Y-167916200D02*
X302047500Y-200083700D01*
X302047500Y-200083700D02*
X315247500Y-200083700D01*
X315247500Y-167916200D02*
X302047500Y-167916200D01*
X315247500Y-200083700D02*
X315247500Y-167916200D01*
%TO.C,D14*%
X308080000Y-288650000D02*
X315080000Y-288650000D01*
X308080000Y-292150000D02*
X308080000Y-288650000D01*
X315080000Y-288650000D02*
X315080000Y-292150000D01*
X315080000Y-292150000D02*
X308080000Y-292150000D01*
%TO.C,H3*%
X423570000Y-123930000D02*
G75*
G02*
X417470000Y-123930000I-3050000J0D01*
G01*
X417470000Y-123930000D02*
G75*
G02*
X423570000Y-123930000I3050000J0D01*
G01*
%TO.C,D4*%
X310820000Y-137857500D02*
X313060000Y-137857500D01*
X310820000Y-142757500D02*
X310820000Y-137857500D01*
X313060000Y-137857500D02*
X313060000Y-142757500D01*
X313060000Y-142757500D02*
X310820000Y-142757500D01*
%TO.C,R19*%
X486595000Y-125070000D02*
X489555000Y-125070000D01*
X486595000Y-126530000D02*
X486595000Y-125070000D01*
X489555000Y-125070000D02*
X489555000Y-126530000D01*
X489555000Y-126530000D02*
X486595000Y-126530000D01*
%TO.C,R17*%
X359470000Y-293620000D02*
X360930000Y-293620000D01*
X359470000Y-296580000D02*
X359470000Y-293620000D01*
X360930000Y-293620000D02*
X360930000Y-296580000D01*
X360930000Y-296580000D02*
X359470000Y-296580000D01*
%TO.C,H2*%
X297850000Y-296600000D02*
G75*
G02*
X291750000Y-296600000I-3050000J0D01*
G01*
X291750000Y-296600000D02*
G75*
G02*
X297850000Y-296600000I3050000J0D01*
G01*
%TO.C,R14*%
X364120000Y-295270000D02*
X367080000Y-295270000D01*
X364120000Y-296730000D02*
X364120000Y-295270000D01*
X367080000Y-295270000D02*
X367080000Y-296730000D01*
X367080000Y-296730000D02*
X364120000Y-296730000D01*
D11*
%TO.C,J4*%
X544400000Y-261540000D02*
X535300000Y-261540000D01*
X535300000Y-250780000D01*
X544400000Y-250780000D01*
X544400000Y-261540000D01*
G36*
X544400000Y-261540000D02*
G01*
X535300000Y-261540000D01*
X535300000Y-250780000D01*
X544400000Y-250780000D01*
X544400000Y-261540000D01*
G37*
D10*
%TO.C,R25*%
X347595000Y-124570000D02*
X350555000Y-124570000D01*
X347595000Y-126030000D02*
X347595000Y-124570000D01*
X350555000Y-124570000D02*
X350555000Y-126030000D01*
X350555000Y-126030000D02*
X347595000Y-126030000D01*
%TO.C,F1*%
X308450000Y-269550000D02*
X312150000Y-269550000D01*
X308450000Y-271450000D02*
X308450000Y-269550000D01*
X312150000Y-269550000D02*
X312150000Y-271450000D01*
X312150000Y-271450000D02*
X308450000Y-271450000D01*
%TO.C,J14*%
X401350000Y-289400000D02*
X401350000Y-297400000D01*
X401350000Y-289400000D02*
X411850000Y-289400000D01*
X411850000Y-297400000D02*
X401350000Y-297400000D01*
X411850000Y-297400000D02*
X411850000Y-289400000D01*
%TO.C,IC3*%
X401392500Y-283590000D02*
X408392500Y-283590000D01*
X401392500Y-287090000D02*
X401392500Y-283590000D01*
X408392500Y-283590000D02*
X408392500Y-287090000D01*
X408392500Y-287090000D02*
X401392500Y-287090000D01*
%TO.C,R22*%
X451710000Y-124970000D02*
X454670000Y-124970000D01*
X451710000Y-126430000D02*
X451710000Y-124970000D01*
X454670000Y-124970000D02*
X454670000Y-126430000D01*
X454670000Y-126430000D02*
X451710000Y-126430000D01*
%TO.C,D2*%
X509050000Y-284580000D02*
X513950000Y-284580000D01*
X509050000Y-286820000D02*
X509050000Y-284580000D01*
X513950000Y-284580000D02*
X513950000Y-286820000D01*
X513950000Y-286820000D02*
X509050000Y-286820000D01*
%TO.C,F2*%
X393920000Y-286080000D02*
X398480000Y-286080000D01*
X393920000Y-288320000D02*
X393920000Y-286080000D01*
X398480000Y-286080000D02*
X398480000Y-288320000D01*
X398480000Y-288320000D02*
X393920000Y-288320000D01*
%TO.C,D7*%
X493350000Y-284180000D02*
X498250000Y-284180000D01*
X493350000Y-286420000D02*
X493350000Y-284180000D01*
X498250000Y-284180000D02*
X498250000Y-286420000D01*
X498250000Y-286420000D02*
X493350000Y-286420000D01*
%TO.C,H4*%
X549020000Y-123940000D02*
G75*
G02*
X542920000Y-123940000I-3050000J0D01*
G01*
X542920000Y-123940000D02*
G75*
G02*
X549020000Y-123940000I3050000J0D01*
G01*
D11*
%TO.C,J17*%
X542800000Y-281487900D02*
X534800000Y-281487900D01*
X534800000Y-273487900D01*
X542800000Y-273487900D01*
X542800000Y-281487900D01*
G36*
X542800000Y-281487900D02*
G01*
X534800000Y-281487900D01*
X534800000Y-273487900D01*
X542800000Y-273487900D01*
X542800000Y-281487900D01*
G37*
D10*
%TO.C,F3*%
X393620000Y-294480000D02*
X398180000Y-294480000D01*
X393620000Y-296720000D02*
X393620000Y-294480000D01*
X398180000Y-294480000D02*
X398180000Y-296720000D01*
X398180000Y-296720000D02*
X393620000Y-296720000D01*
%TO.C,D9*%
X433237500Y-288280000D02*
X438137500Y-288280000D01*
X433237500Y-290520000D02*
X433237500Y-288280000D01*
X438137500Y-288280000D02*
X438137500Y-290520000D01*
X438137500Y-290520000D02*
X433237500Y-290520000D01*
%TO.C,D20*%
X323400000Y-292630000D02*
X328300000Y-292630000D01*
X323400000Y-294870000D02*
X323400000Y-292630000D01*
X328300000Y-292630000D02*
X328300000Y-294870000D01*
X328300000Y-294870000D02*
X323400000Y-294870000D01*
%TO.C,D17*%
X435162500Y-123980000D02*
X440062500Y-123980000D01*
X435162500Y-126220000D02*
X435162500Y-123980000D01*
X440062500Y-123980000D02*
X440062500Y-126220000D01*
X440062500Y-126220000D02*
X435162500Y-126220000D01*
%TO.C,RV1*%
X316850000Y-288220000D02*
X318750000Y-288220000D01*
X316850000Y-291580000D02*
X316850000Y-288220000D01*
X318750000Y-288220000D02*
X318750000Y-291580000D01*
X318750000Y-291580000D02*
X316850000Y-291580000D01*
D11*
%TO.C,J13*%
X544200000Y-248300000D02*
X535100000Y-248300000D01*
X535100000Y-227380000D01*
X544200000Y-227380000D01*
X544200000Y-248300000D01*
G36*
X544200000Y-248300000D02*
G01*
X535100000Y-248300000D01*
X535100000Y-227380000D01*
X544200000Y-227380000D01*
X544200000Y-248300000D01*
G37*
%TO.C,J19*%
X544080000Y-148850000D02*
X534980000Y-148850000D01*
X534980000Y-133010000D01*
X544080000Y-133010000D01*
X544080000Y-148850000D01*
G36*
X544080000Y-148850000D02*
G01*
X534980000Y-148850000D01*
X534980000Y-133010000D01*
X544080000Y-133010000D01*
X544080000Y-148850000D01*
G37*
D10*
%TO.C,R23*%
X429795000Y-124870000D02*
X432755000Y-124870000D01*
X429795000Y-126330000D02*
X429795000Y-124870000D01*
X432755000Y-124870000D02*
X432755000Y-126330000D01*
X432755000Y-126330000D02*
X429795000Y-126330000D01*
%TO.C,D21*%
X366250000Y-292350000D02*
X366250000Y-287650000D01*
X368550000Y-287650000D02*
X366250000Y-287650000D01*
X368550000Y-287650000D02*
X368550000Y-292350000D01*
X368550000Y-292350000D02*
X366250000Y-292350000D01*
D11*
%TO.C,J10*%
X302010000Y-148210000D02*
X292910000Y-148210000D01*
X292910000Y-127290000D01*
X302010000Y-127290000D01*
X302010000Y-148210000D01*
G36*
X302010000Y-148210000D02*
G01*
X292910000Y-148210000D01*
X292910000Y-127290000D01*
X302010000Y-127290000D01*
X302010000Y-148210000D01*
G37*
D10*
%TO.C,FB2*%
X442137500Y-288950000D02*
X445837500Y-288950000D01*
X442137500Y-290850000D02*
X442137500Y-288950000D01*
X445837500Y-288950000D02*
X445837500Y-290850000D01*
X445837500Y-290850000D02*
X442137500Y-290850000D01*
D11*
%TO.C,J1*%
X469820000Y-296800000D02*
X459060000Y-296800000D01*
X459060000Y-287700000D01*
X469820000Y-287700000D01*
X469820000Y-296800000D01*
G36*
X469820000Y-296800000D02*
G01*
X459060000Y-296800000D01*
X459060000Y-287700000D01*
X469820000Y-287700000D01*
X469820000Y-296800000D01*
G37*
D10*
%TO.C,J15*%
X518850000Y-129610000D02*
X518850000Y-145900000D01*
X518850000Y-145900000D02*
X528750000Y-145900000D01*
X528750000Y-129610000D02*
X518850000Y-129610000D01*
X528750000Y-145900000D02*
X528750000Y-129610000D01*
%TO.C,R12*%
X451295000Y-295670000D02*
X454255000Y-295670000D01*
X451295000Y-297130000D02*
X451295000Y-295670000D01*
X454255000Y-295670000D02*
X454255000Y-297130000D01*
X454255000Y-297130000D02*
X451295000Y-297130000D01*
%TO.C,R9*%
X500795000Y-284670000D02*
X503755000Y-284670000D01*
X500795000Y-286130000D02*
X500795000Y-284670000D01*
X503755000Y-284670000D02*
X503755000Y-286130000D01*
X503755000Y-286130000D02*
X500795000Y-286130000D01*
%TO.C,J5*%
X290650000Y-262550000D02*
X290650000Y-273350000D01*
X290650000Y-273350000D02*
X305950000Y-273350000D01*
X305950000Y-262550000D02*
X290650000Y-262550000D01*
X305950000Y-273350000D02*
X305950000Y-262550000D01*
%TO.C,H6*%
X549250000Y-296790000D02*
G75*
G02*
X543150000Y-296790000I-3050000J0D01*
G01*
X543150000Y-296790000D02*
G75*
G02*
X549250000Y-296790000I3050000J0D01*
G01*
D11*
%TO.C,U1*%
X355050000Y-296800000D02*
X345950000Y-296800000D01*
X345950000Y-284600000D01*
X355050000Y-284600000D01*
X355050000Y-296800000D01*
G36*
X355050000Y-296800000D02*
G01*
X345950000Y-296800000D01*
X345950000Y-284600000D01*
X355050000Y-284600000D01*
X355050000Y-296800000D01*
G37*
D10*
%TO.C,J6*%
X291030000Y-281920000D02*
X294080000Y-279170000D01*
X291030000Y-285620000D02*
X291030000Y-281920000D01*
X294080000Y-279170000D02*
X307530000Y-279170000D01*
X294080000Y-288370000D02*
X291030000Y-285620000D01*
X307530000Y-279170000D02*
X307530000Y-288370000D01*
X307530000Y-288370000D02*
X294080000Y-288370000D01*
%TO.C,D8*%
X451550000Y-284880000D02*
X456450000Y-284880000D01*
X451550000Y-287120000D02*
X451550000Y-284880000D01*
X456450000Y-284880000D02*
X456450000Y-287120000D01*
X456450000Y-287120000D02*
X451550000Y-287120000D01*
%TO.C,IC1*%
X386950000Y-290500000D02*
X386950000Y-293900000D01*
X386950000Y-293900000D02*
X391050000Y-293900000D01*
X391050000Y-290500000D02*
X386950000Y-290500000D01*
X391050000Y-293900000D02*
X391050000Y-290500000D01*
%TO.C,D6*%
X308062500Y-284260000D02*
X312962500Y-284260000D01*
X308062500Y-286500000D02*
X308062500Y-284260000D01*
X312962500Y-284260000D02*
X312962500Y-286500000D01*
X312962500Y-286500000D02*
X308062500Y-286500000D01*
D11*
%TO.C,J9*%
X301200000Y-241140000D02*
X292100000Y-241140000D01*
X292100000Y-220220000D01*
X301200000Y-220220000D01*
X301200000Y-241140000D01*
G36*
X301200000Y-241140000D02*
G01*
X292100000Y-241140000D01*
X292100000Y-220220000D01*
X301200000Y-220220000D01*
X301200000Y-241140000D01*
G37*
D10*
%TO.C,D1*%
X522462500Y-149780000D02*
X527362500Y-149780000D01*
X522462500Y-152020000D02*
X522462500Y-149780000D01*
X527362500Y-149780000D02*
X527362500Y-152020000D01*
X527362500Y-152020000D02*
X522462500Y-152020000D01*
D11*
%TO.C,J7*%
X544300000Y-176200000D02*
X535200000Y-176200000D01*
X535200000Y-155280000D01*
X544300000Y-155280000D01*
X544300000Y-176200000D01*
G36*
X544300000Y-176200000D02*
G01*
X535200000Y-176200000D01*
X535200000Y-155280000D01*
X544300000Y-155280000D01*
X544300000Y-176200000D01*
G37*
D10*
%TO.C,R2*%
X516920000Y-285070000D02*
X519880000Y-285070000D01*
X516920000Y-286530000D02*
X516920000Y-285070000D01*
X519880000Y-285070000D02*
X519880000Y-286530000D01*
X519880000Y-286530000D02*
X516920000Y-286530000D01*
%TO.C,D12*%
X336550000Y-283980000D02*
X341450000Y-283980000D01*
X336550000Y-286220000D02*
X336550000Y-283980000D01*
X341450000Y-283980000D02*
X341450000Y-286220000D01*
X341450000Y-286220000D02*
X336550000Y-286220000D01*
%TO.C,U2*%
X416525000Y-285492500D02*
X416525000Y-290897500D01*
X416525000Y-285492500D02*
X423935000Y-285492500D01*
X416525000Y-290897500D02*
X423935000Y-290897500D01*
X423935000Y-285492500D02*
X423935000Y-290897500D01*
%TO.C,J16*%
X523400000Y-269237900D02*
X523400000Y-285537900D01*
X523400000Y-285537900D02*
X527000000Y-285537900D01*
X527000000Y-269237900D02*
X523400000Y-269237900D01*
X527000000Y-285537900D02*
X527000000Y-269237900D01*
%TO.C,D19*%
X353562500Y-123780000D02*
X358462500Y-123780000D01*
X353562500Y-126020000D02*
X353562500Y-123780000D01*
X358462500Y-123780000D02*
X358462500Y-126020000D01*
X358462500Y-126020000D02*
X353562500Y-126020000D01*
%TO.C,R8*%
X317120000Y-293270000D02*
X320080000Y-293270000D01*
X317120000Y-294730000D02*
X317120000Y-293270000D01*
X320080000Y-293270000D02*
X320080000Y-294730000D01*
X320080000Y-294730000D02*
X317120000Y-294730000D01*
%TO.C,S1*%
X321400000Y-283872500D02*
X321400000Y-291232500D01*
X321400000Y-291232500D02*
X334600000Y-291232500D01*
X334600000Y-283872500D02*
X321400000Y-283872500D01*
X334600000Y-291232500D02*
X334600000Y-283872500D01*
D11*
%TO.C,J2*%
X485280000Y-296650000D02*
X474520000Y-296650000D01*
X474520000Y-287550000D01*
X485280000Y-287550000D01*
X485280000Y-296650000D01*
G36*
X485280000Y-296650000D02*
G01*
X474520000Y-296650000D01*
X474520000Y-287550000D01*
X485280000Y-287550000D01*
X485280000Y-296650000D01*
G37*
D10*
%TO.C,D18*%
X389162500Y-124180000D02*
X394062500Y-124180000D01*
X389162500Y-126420000D02*
X389162500Y-124180000D01*
X394062500Y-124180000D02*
X394062500Y-126420000D01*
X394062500Y-126420000D02*
X389162500Y-126420000D01*
%TO.C,R3*%
X520955000Y-190980000D02*
X523915000Y-190980000D01*
X520955000Y-192440000D02*
X520955000Y-190980000D01*
X523915000Y-190980000D02*
X523915000Y-192440000D01*
X523915000Y-192440000D02*
X520955000Y-192440000D01*
%TO.C,R7*%
X306295000Y-239270000D02*
X309255000Y-239270000D01*
X306295000Y-240730000D02*
X306295000Y-239270000D01*
X309255000Y-239270000D02*
X309255000Y-240730000D01*
X309255000Y-240730000D02*
X306295000Y-240730000D01*
%TO.C,R13*%
X428907500Y-291670000D02*
X431867500Y-291670000D01*
X428907500Y-293130000D02*
X428907500Y-291670000D01*
X431867500Y-291670000D02*
X431867500Y-293130000D01*
X431867500Y-293130000D02*
X428907500Y-293130000D01*
%TO.C,H5*%
X425610000Y-296690000D02*
G75*
G02*
X419510000Y-296690000I-3050000J0D01*
G01*
X419510000Y-296690000D02*
G75*
G02*
X425610000Y-296690000I3050000J0D01*
G01*
%TO.C,R18*%
X336820000Y-288270000D02*
X339780000Y-288270000D01*
X336820000Y-289730000D02*
X336820000Y-288270000D01*
X339780000Y-288270000D02*
X339780000Y-289730000D01*
X339780000Y-289730000D02*
X336820000Y-289730000D01*
%TD*%
M02*
