%TF.GenerationSoftware,KiCad,Pcbnew,8.0.5*%
%TF.CreationDate,2025-05-12T12:18:58+05:30*%
%TF.ProjectId,automation,6175746f-6d61-4746-996f-6e2e6b696361,rev?*%
%TF.SameCoordinates,Original*%
%TF.FileFunction,Paste,Bot*%
%TF.FilePolarity,Positive*%
%FSLAX46Y46*%
G04 Gerber Fmt 4.6, Leading zero omitted, Abs format (unit mm)*
G04 Created by KiCad (PCBNEW 8.0.5) date 2025-05-12 12:18:58*
%MOMM*%
%LPD*%
G01*
G04 APERTURE LIST*
G04 Aperture macros list*
%AMRoundRect*
0 Rectangle with rounded corners*
0 $1 Rounding radius*
0 $2 $3 $4 $5 $6 $7 $8 $9 X,Y pos of 4 corners*
0 Add a 4 corners polygon primitive as box body*
4,1,4,$2,$3,$4,$5,$6,$7,$8,$9,$2,$3,0*
0 Add four circle primitives for the rounded corners*
1,1,$1+$1,$2,$3*
1,1,$1+$1,$4,$5*
1,1,$1+$1,$6,$7*
1,1,$1+$1,$8,$9*
0 Add four rect primitives between the rounded corners*
20,1,$1+$1,$2,$3,$4,$5,0*
20,1,$1+$1,$4,$5,$6,$7,0*
20,1,$1+$1,$6,$7,$8,$9,0*
20,1,$1+$1,$8,$9,$2,$3,0*%
G04 Aperture macros list end*
%ADD10RoundRect,0.200000X0.200000X0.275000X-0.200000X0.275000X-0.200000X-0.275000X0.200000X-0.275000X0*%
%ADD11RoundRect,0.200000X-0.275000X0.200000X-0.275000X-0.200000X0.275000X-0.200000X0.275000X0.200000X0*%
%ADD12RoundRect,0.150000X0.150000X-0.587500X0.150000X0.587500X-0.150000X0.587500X-0.150000X-0.587500X0*%
%ADD13RoundRect,0.243750X-0.456250X0.243750X-0.456250X-0.243750X0.456250X-0.243750X0.456250X0.243750X0*%
%ADD14RoundRect,0.250000X-1.100000X0.500000X-1.100000X-0.500000X1.100000X-0.500000X1.100000X0.500000X0*%
%ADD15RoundRect,0.200000X0.275000X-0.200000X0.275000X0.200000X-0.275000X0.200000X-0.275000X-0.200000X0*%
%ADD16RoundRect,0.250000X-0.500000X-1.100000X0.500000X-1.100000X0.500000X1.100000X-0.500000X1.100000X0*%
%ADD17RoundRect,0.225000X0.225000X0.250000X-0.225000X0.250000X-0.225000X-0.250000X0.225000X-0.250000X0*%
%ADD18RoundRect,0.150000X0.587500X0.150000X-0.587500X0.150000X-0.587500X-0.150000X0.587500X-0.150000X0*%
%ADD19RoundRect,0.200000X-0.200000X-0.275000X0.200000X-0.275000X0.200000X0.275000X-0.200000X0.275000X0*%
%ADD20RoundRect,0.225000X-0.225000X-0.250000X0.225000X-0.250000X0.225000X0.250000X-0.225000X0.250000X0*%
%ADD21RoundRect,0.243750X0.456250X-0.243750X0.456250X0.243750X-0.456250X0.243750X-0.456250X-0.243750X0*%
%ADD22RoundRect,0.250000X1.100000X-0.500000X1.100000X0.500000X-1.100000X0.500000X-1.100000X-0.500000X0*%
%ADD23RoundRect,0.225000X-0.250000X0.225000X-0.250000X-0.225000X0.250000X-0.225000X0.250000X0.225000X0*%
%ADD24RoundRect,0.243750X0.243750X0.456250X-0.243750X0.456250X-0.243750X-0.456250X0.243750X-0.456250X0*%
%ADD25RoundRect,0.250000X0.500000X1.100000X-0.500000X1.100000X-0.500000X-1.100000X0.500000X-1.100000X0*%
G04 APERTURE END LIST*
D10*
%TO.C,R42*%
X397970000Y-228050000D03*
X396320000Y-228050000D03*
%TD*%
D11*
%TO.C,R21*%
X465490000Y-216750000D03*
X465490000Y-218400000D03*
%TD*%
D12*
%TO.C,Q7*%
X467370000Y-155320000D03*
X465470000Y-155320000D03*
X466420000Y-153445000D03*
%TD*%
%TO.C,Q2*%
X364520600Y-156210000D03*
X362620600Y-156210000D03*
X363570600Y-154335000D03*
%TD*%
D13*
%TO.C,D46*%
X499390000Y-150175000D03*
X499390000Y-152050000D03*
%TD*%
D14*
%TO.C,D36*%
X428447500Y-147190000D03*
X428447500Y-151990000D03*
%TD*%
D15*
%TO.C,R20*%
X397202500Y-148455000D03*
X397202500Y-146805000D03*
%TD*%
D13*
%TO.C,D35*%
X499800000Y-220325000D03*
X499800000Y-222200000D03*
%TD*%
D16*
%TO.C,D56*%
X511560000Y-161490000D03*
X516360000Y-161490000D03*
%TD*%
%TO.C,D57*%
X520850000Y-161450000D03*
X525650000Y-161450000D03*
%TD*%
D17*
%TO.C,C10*%
X320490000Y-217315000D03*
X318940000Y-217315000D03*
%TD*%
D14*
%TO.C,D26*%
X360092500Y-147040000D03*
X360092500Y-151840000D03*
%TD*%
%TO.C,D41*%
X462840000Y-147070000D03*
X462840000Y-151870000D03*
%TD*%
D18*
%TO.C,Q15*%
X521605000Y-214537500D03*
X521605000Y-216437500D03*
X519730000Y-215487500D03*
%TD*%
D17*
%TO.C,C5*%
X398607500Y-160960000D03*
X397057500Y-160960000D03*
%TD*%
D11*
%TO.C,R41*%
X522940000Y-157267500D03*
X522940000Y-158917500D03*
%TD*%
D14*
%TO.C,D50*%
X316110000Y-151100000D03*
X316110000Y-155900000D03*
%TD*%
D12*
%TO.C,Q5*%
X432900000Y-156460000D03*
X431000000Y-156460000D03*
X431950000Y-154585000D03*
%TD*%
D17*
%TO.C,C3*%
X432225000Y-230830000D03*
X430675000Y-230830000D03*
%TD*%
D11*
%TO.C,R30*%
X499600000Y-217080000D03*
X499600000Y-218730000D03*
%TD*%
D19*
%TO.C,R15*%
X397027500Y-157960000D03*
X398677500Y-157960000D03*
%TD*%
D12*
%TO.C,Q3*%
X399022500Y-155967500D03*
X397122500Y-155967500D03*
X398072500Y-154092500D03*
%TD*%
D14*
%TO.C,D45*%
X316170000Y-212185000D03*
X316170000Y-216985000D03*
%TD*%
%TO.C,D44*%
X316100000Y-202965000D03*
X316100000Y-207765000D03*
%TD*%
%TO.C,D48*%
X496582500Y-155120000D03*
X496582500Y-159920000D03*
%TD*%
D12*
%TO.C,Q10*%
X320690000Y-159925000D03*
X318790000Y-159925000D03*
X319740000Y-158050000D03*
%TD*%
D20*
%TO.C,C7*%
X430935000Y-161360000D03*
X432485000Y-161360000D03*
%TD*%
D11*
%TO.C,R10*%
X430730000Y-217260000D03*
X430730000Y-218910000D03*
%TD*%
D20*
%TO.C,C15*%
X396310000Y-230830000D03*
X397860000Y-230830000D03*
%TD*%
D19*
%TO.C,R38*%
X361410000Y-228550000D03*
X363060000Y-228550000D03*
%TD*%
D13*
%TO.C,D52*%
X361980000Y-221112500D03*
X361980000Y-222987500D03*
%TD*%
D14*
%TO.C,D63*%
X464380000Y-274472500D03*
X464380000Y-279272500D03*
%TD*%
D12*
%TO.C,Q13*%
X398290000Y-226080000D03*
X396390000Y-226080000D03*
X397340000Y-224205000D03*
%TD*%
D14*
%TO.C,D38*%
X497027500Y-217120000D03*
X497027500Y-221920000D03*
%TD*%
D10*
%TO.C,R43*%
X512855000Y-158850000D03*
X511205000Y-158850000D03*
%TD*%
D13*
%TO.C,D40*%
X465690000Y-149735000D03*
X465690000Y-151610000D03*
%TD*%
D19*
%TO.C,R35*%
X499090000Y-157550000D03*
X500740000Y-157550000D03*
%TD*%
D21*
%TO.C,D61*%
X467310000Y-270747500D03*
X467310000Y-268872500D03*
%TD*%
D14*
%TO.C,D24*%
X428087500Y-217190000D03*
X428087500Y-221990000D03*
%TD*%
%TO.C,D33*%
X462680000Y-225390000D03*
X462680000Y-230190000D03*
%TD*%
D11*
%TO.C,R40*%
X361890000Y-216580000D03*
X361890000Y-218230000D03*
%TD*%
D22*
%TO.C,D27*%
X359930600Y-161000000D03*
X359930600Y-156200000D03*
%TD*%
D14*
%TO.C,D60*%
X393747500Y-225610000D03*
X393747500Y-230410000D03*
%TD*%
D17*
%TO.C,C16*%
X468720000Y-279452500D03*
X467170000Y-279452500D03*
%TD*%
%TO.C,C8*%
X501100000Y-230730000D03*
X499550000Y-230730000D03*
%TD*%
D11*
%TO.C,R32*%
X465430000Y-146550000D03*
X465430000Y-148200000D03*
%TD*%
D12*
%TO.C,Q14*%
X468930000Y-274587500D03*
X467030000Y-274587500D03*
X467980000Y-272712500D03*
%TD*%
D10*
%TO.C,R26*%
X432565000Y-158410000D03*
X430915000Y-158410000D03*
%TD*%
D14*
%TO.C,D32*%
X462760000Y-216950000D03*
X462760000Y-221750000D03*
%TD*%
D12*
%TO.C,Q9*%
X501070000Y-155730000D03*
X499170000Y-155730000D03*
X500120000Y-153855000D03*
%TD*%
D14*
%TO.C,D42*%
X462600000Y-155600000D03*
X462600000Y-160400000D03*
%TD*%
%TO.C,D30*%
X394552500Y-147192500D03*
X394552500Y-151992500D03*
%TD*%
D13*
%TO.C,D34*%
X431360000Y-150665000D03*
X431360000Y-152540000D03*
%TD*%
D10*
%TO.C,R33*%
X320410000Y-213895000D03*
X318760000Y-213895000D03*
%TD*%
%TO.C,R45*%
X468560000Y-276562500D03*
X466910000Y-276562500D03*
%TD*%
D11*
%TO.C,R29*%
X431140000Y-147420000D03*
X431140000Y-149070000D03*
%TD*%
D14*
%TO.C,D53*%
X359227500Y-217132500D03*
X359227500Y-221932500D03*
%TD*%
%TO.C,D51*%
X316180000Y-159460000D03*
X316180000Y-164260000D03*
%TD*%
%TO.C,D54*%
X358967500Y-226282500D03*
X358967500Y-231082500D03*
%TD*%
D21*
%TO.C,D43*%
X318940000Y-207882500D03*
X318940000Y-206007500D03*
%TD*%
%TO.C,D23*%
X362892500Y-152097500D03*
X362892500Y-150222500D03*
%TD*%
D12*
%TO.C,Q1*%
X432600000Y-226090000D03*
X430700000Y-226090000D03*
X431650000Y-224215000D03*
%TD*%
D15*
%TO.C,R34*%
X318760000Y-204265000D03*
X318760000Y-202615000D03*
%TD*%
D21*
%TO.C,D49*%
X318870000Y-156047500D03*
X318870000Y-154172500D03*
%TD*%
D14*
%TO.C,D39*%
X496987500Y-225620000D03*
X496987500Y-230420000D03*
%TD*%
D10*
%TO.C,R37*%
X320345000Y-161850000D03*
X318695000Y-161850000D03*
%TD*%
D21*
%TO.C,D22*%
X430950000Y-222340000D03*
X430950000Y-220465000D03*
%TD*%
D11*
%TO.C,R47*%
X523510000Y-214857500D03*
X523510000Y-216507500D03*
%TD*%
D15*
%TO.C,R39*%
X318630000Y-152360000D03*
X318630000Y-150710000D03*
%TD*%
D17*
%TO.C,C12*%
X320455000Y-164820000D03*
X318905000Y-164820000D03*
%TD*%
%TO.C,C6*%
X466775000Y-230570000D03*
X465225000Y-230570000D03*
%TD*%
D14*
%TO.C,D25*%
X428117500Y-225750000D03*
X428117500Y-230550000D03*
%TD*%
D18*
%TO.C,Q12*%
X520825000Y-156972500D03*
X520825000Y-158872500D03*
X518950000Y-157922500D03*
%TD*%
D12*
%TO.C,Q11*%
X363400000Y-226680000D03*
X361500000Y-226680000D03*
X362450000Y-224805000D03*
%TD*%
D19*
%TO.C,R31*%
X465380000Y-157170000D03*
X467030000Y-157170000D03*
%TD*%
D23*
%TO.C,C14*%
X526000000Y-157287500D03*
X526000000Y-158837500D03*
%TD*%
D24*
%TO.C,D55*%
X516657500Y-158672500D03*
X514782500Y-158672500D03*
%TD*%
D17*
%TO.C,C11*%
X500730000Y-160370000D03*
X499180000Y-160370000D03*
%TD*%
D12*
%TO.C,Q6*%
X501490000Y-225910000D03*
X499590000Y-225910000D03*
X500540000Y-224035000D03*
%TD*%
D11*
%TO.C,R36*%
X499160000Y-146720000D03*
X499160000Y-148370000D03*
%TD*%
D17*
%TO.C,C9*%
X466920000Y-159980000D03*
X465370000Y-159980000D03*
%TD*%
D21*
%TO.C,D28*%
X397392500Y-152147500D03*
X397392500Y-150272500D03*
%TD*%
D12*
%TO.C,Q4*%
X467180000Y-225730000D03*
X465280000Y-225730000D03*
X466230000Y-223855000D03*
%TD*%
D13*
%TO.C,D29*%
X465580000Y-220095000D03*
X465580000Y-221970000D03*
%TD*%
D11*
%TO.C,R44*%
X396560000Y-217060000D03*
X396560000Y-218710000D03*
%TD*%
D16*
%TO.C,D65*%
X512490000Y-219107500D03*
X517290000Y-219107500D03*
%TD*%
D15*
%TO.C,R46*%
X467180000Y-267112500D03*
X467180000Y-265462500D03*
%TD*%
D21*
%TO.C,D58*%
X396730000Y-222220000D03*
X396730000Y-220345000D03*
%TD*%
D19*
%TO.C,R16*%
X465215000Y-227590000D03*
X466865000Y-227590000D03*
%TD*%
D15*
%TO.C,R11*%
X362712500Y-148335000D03*
X362712500Y-146685000D03*
%TD*%
D12*
%TO.C,Q8*%
X320590000Y-211700000D03*
X318690000Y-211700000D03*
X319640000Y-209825000D03*
%TD*%
D14*
%TO.C,D62*%
X464500000Y-265842500D03*
X464500000Y-270642500D03*
%TD*%
D22*
%TO.C,D59*%
X393937500Y-221960000D03*
X393937500Y-217160000D03*
%TD*%
D10*
%TO.C,R48*%
X513745000Y-216337500D03*
X512095000Y-216337500D03*
%TD*%
D19*
%TO.C,R27*%
X499560000Y-227790000D03*
X501210000Y-227790000D03*
%TD*%
%TO.C,R5*%
X362565600Y-161460000D03*
X364215600Y-161460000D03*
%TD*%
D17*
%TO.C,C13*%
X362990000Y-231390000D03*
X361440000Y-231390000D03*
%TD*%
D14*
%TO.C,D37*%
X428397500Y-156230000D03*
X428397500Y-161030000D03*
%TD*%
D23*
%TO.C,C17*%
X526490000Y-214767500D03*
X526490000Y-216317500D03*
%TD*%
D25*
%TO.C,D66*%
X526307500Y-219027500D03*
X521507500Y-219027500D03*
%TD*%
D24*
%TO.C,D64*%
X517567500Y-216217500D03*
X515692500Y-216217500D03*
%TD*%
D19*
%TO.C,R4*%
X430660000Y-227910000D03*
X432310000Y-227910000D03*
%TD*%
D14*
%TO.C,D31*%
X394512500Y-156310000D03*
X394512500Y-161110000D03*
%TD*%
D17*
%TO.C,C4*%
X364205600Y-158250000D03*
X362655600Y-158250000D03*
%TD*%
D14*
%TO.C,D47*%
X496622500Y-147030000D03*
X496622500Y-151830000D03*
%TD*%
M02*
