%TF.GenerationSoftware,KiCad,Pcbnew,8.0.5*%
%TF.CreationDate,2025-05-12T12:18:58+05:30*%
%TF.ProjectId,automation,6175746f-6d61-4746-996f-6e2e6b696361,rev?*%
%TF.SameCoordinates,Original*%
%TF.FileFunction,Soldermask,Top*%
%TF.FilePolarity,Negative*%
%FSLAX46Y46*%
G04 Gerber Fmt 4.6, Leading zero omitted, Abs format (unit mm)*
G04 Created by KiCad (PCBNEW 8.0.5) date 2025-05-12 12:18:58*
%MOMM*%
%LPD*%
G01*
G04 APERTURE LIST*
G04 Aperture macros list*
%AMRoundRect*
0 Rectangle with rounded corners*
0 $1 Rounding radius*
0 $2 $3 $4 $5 $6 $7 $8 $9 X,Y pos of 4 corners*
0 Add a 4 corners polygon primitive as box body*
4,1,4,$2,$3,$4,$5,$6,$7,$8,$9,$2,$3,0*
0 Add four circle primitives for the rounded corners*
1,1,$1+$1,$2,$3*
1,1,$1+$1,$4,$5*
1,1,$1+$1,$6,$7*
1,1,$1+$1,$8,$9*
0 Add four rect primitives between the rounded corners*
20,1,$1+$1,$2,$3,$4,$5,0*
20,1,$1+$1,$4,$5,$6,$7,0*
20,1,$1+$1,$6,$7,$8,$9,0*
20,1,$1+$1,$8,$9,$2,$3,0*%
G04 Aperture macros list end*
%ADD10RoundRect,0.250000X0.337500X0.475000X-0.337500X0.475000X-0.337500X-0.475000X0.337500X-0.475000X0*%
%ADD11RoundRect,0.250000X-0.350000X-0.450000X0.350000X-0.450000X0.350000X0.450000X-0.350000X0.450000X0*%
%ADD12RoundRect,0.250000X-0.337500X-0.475000X0.337500X-0.475000X0.337500X0.475000X-0.337500X0.475000X0*%
%ADD13RoundRect,0.250000X-1.000000X-0.650000X1.000000X-0.650000X1.000000X0.650000X-1.000000X0.650000X0*%
%ADD14RoundRect,0.250001X0.462499X0.624999X-0.462499X0.624999X-0.462499X-0.624999X0.462499X-0.624999X0*%
%ADD15RoundRect,0.250001X-0.462499X-0.624999X0.462499X-0.624999X0.462499X0.624999X-0.462499X0.624999X0*%
%ADD16C,2.604000*%
%ADD17RoundRect,0.200000X0.200000X0.275000X-0.200000X0.275000X-0.200000X-0.275000X0.200000X-0.275000X0*%
%ADD18C,5.600000*%
%ADD19RoundRect,0.200000X0.275000X-0.200000X0.275000X0.200000X-0.275000X0.200000X-0.275000X-0.200000X0*%
%ADD20RoundRect,0.250001X0.624999X-0.462499X0.624999X0.462499X-0.624999X0.462499X-0.624999X-0.462499X0*%
%ADD21RoundRect,0.200000X-0.200000X-0.275000X0.200000X-0.275000X0.200000X0.275000X-0.200000X0.275000X0*%
%ADD22RoundRect,0.102000X-1.387500X-1.387500X1.387500X-1.387500X1.387500X1.387500X-1.387500X1.387500X0*%
%ADD23C,2.979000*%
%ADD24RoundRect,0.200000X-0.275000X0.200000X-0.275000X-0.200000X0.275000X-0.200000X0.275000X0.200000X0*%
%ADD25RoundRect,0.250000X-0.325000X-0.450000X0.325000X-0.450000X0.325000X0.450000X-0.325000X0.450000X0*%
%ADD26R,3.000000X3.000000*%
%ADD27C,3.000000*%
%ADD28RoundRect,0.250000X-0.312500X-0.625000X0.312500X-0.625000X0.312500X0.625000X-0.312500X0.625000X0*%
%ADD29C,2.154000*%
%ADD30RoundRect,0.250000X-0.450000X0.262500X-0.450000X-0.262500X0.450000X-0.262500X0.450000X0.262500X0*%
%ADD31RoundRect,0.225000X-0.375000X0.225000X-0.375000X-0.225000X0.375000X-0.225000X0.375000X0.225000X0*%
%ADD32RoundRect,0.250000X0.350000X0.450000X-0.350000X0.450000X-0.350000X-0.450000X0.350000X-0.450000X0*%
%ADD33RoundRect,0.250000X-0.600000X-0.600000X0.600000X-0.600000X0.600000X0.600000X-0.600000X0.600000X0*%
%ADD34C,1.700000*%
%ADD35O,2.404000X4.604000*%
%ADD36O,2.204000X4.204000*%
%ADD37O,4.204000X2.204000*%
%ADD38C,1.712000*%
%ADD39RoundRect,1.500000X-1.500000X-1.500000X1.500000X-1.500000X1.500000X1.500000X-1.500000X1.500000X0*%
%ADD40C,6.000000*%
%ADD41RoundRect,0.150000X0.512500X0.150000X-0.512500X0.150000X-0.512500X-0.150000X0.512500X-0.150000X0*%
%ADD42RoundRect,0.100500X-0.986500X-0.301500X0.986500X-0.301500X0.986500X0.301500X-0.986500X0.301500X0*%
%ADD43R,1.700000X1.700000*%
%ADD44O,1.700000X1.700000*%
%ADD45RoundRect,0.102000X1.387500X-1.387500X1.387500X1.387500X-1.387500X1.387500X-1.387500X-1.387500X0*%
%ADD46R,1.600200X1.600200*%
%ADD47C,1.600200*%
%ADD48RoundRect,0.102000X-0.990000X0.990000X-0.990000X-0.990000X0.990000X-0.990000X0.990000X0.990000X0*%
%ADD49C,2.184000*%
%ADD50C,2.139000*%
%ADD51RoundRect,0.102000X0.990000X0.990000X-0.990000X0.990000X-0.990000X-0.990000X0.990000X-0.990000X0*%
G04 APERTURE END LIST*
D10*
%TO.C,C1*%
X437812500Y-297600000D03*
X435737500Y-297600000D03*
%TD*%
D11*
%TO.C,FB1*%
X309812500Y-282200000D03*
X311812500Y-282200000D03*
%TD*%
D12*
%TO.C,C2*%
X444000000Y-297500000D03*
X446075000Y-297500000D03*
%TD*%
D13*
%TO.C,D13*%
X308500000Y-275400000D03*
X312500000Y-275400000D03*
%TD*%
D14*
%TO.C,D5*%
X309875000Y-235550000D03*
X306900000Y-235550000D03*
%TD*%
D13*
%TO.C,IC2*%
X374400000Y-292300000D03*
X378400000Y-292300000D03*
%TD*%
D15*
%TO.C,D16*%
X457625000Y-125300000D03*
X460600000Y-125300000D03*
%TD*%
D16*
%TO.C,J8*%
X539300000Y-197960000D03*
X539300000Y-192880000D03*
X539300000Y-187800000D03*
X539300000Y-182720000D03*
%TD*%
D17*
%TO.C,R24*%
X385900000Y-125500000D03*
X384250000Y-125500000D03*
%TD*%
D15*
%TO.C,D3*%
X521622500Y-186470000D03*
X524597500Y-186470000D03*
%TD*%
%TO.C,D15*%
X491825000Y-125200000D03*
X494800000Y-125200000D03*
%TD*%
D18*
%TO.C,H1*%
X295590000Y-123970000D03*
%TD*%
D19*
%TO.C,R6*%
X317540000Y-143620000D03*
X317540000Y-141970000D03*
%TD*%
D15*
%TO.C,D10*%
X381412500Y-285300000D03*
X384387500Y-285300000D03*
%TD*%
D17*
%TO.C,R1*%
X520200000Y-150920000D03*
X518550000Y-150920000D03*
%TD*%
D20*
%TO.C,D11*%
X360200000Y-291087500D03*
X360200000Y-288112500D03*
%TD*%
D16*
%TO.C,J12*%
X539200000Y-221860000D03*
X539200000Y-216780000D03*
X539200000Y-211700000D03*
X539200000Y-206620000D03*
%TD*%
D21*
%TO.C,R28*%
X331075000Y-293700000D03*
X332725000Y-293700000D03*
%TD*%
D22*
%TO.C,S2*%
X303947500Y-194636200D03*
D23*
X308647500Y-194636200D03*
X313347500Y-194636200D03*
X303947500Y-198446200D03*
X308647500Y-198446200D03*
X313347500Y-198446200D03*
X306107500Y-181936200D03*
X311187500Y-181936200D03*
%TD*%
D13*
%TO.C,D14*%
X309580000Y-290400000D03*
X313580000Y-290400000D03*
%TD*%
D18*
%TO.C,H3*%
X420520000Y-123930000D03*
%TD*%
D20*
%TO.C,D4*%
X311940000Y-141795000D03*
X311940000Y-138820000D03*
%TD*%
D17*
%TO.C,R19*%
X488900000Y-125800000D03*
X487250000Y-125800000D03*
%TD*%
D24*
%TO.C,R17*%
X360200000Y-294275000D03*
X360200000Y-295925000D03*
%TD*%
D18*
%TO.C,H2*%
X294800000Y-296600000D03*
%TD*%
D21*
%TO.C,R14*%
X364775000Y-296000000D03*
X366425000Y-296000000D03*
%TD*%
D16*
%TO.C,J4*%
X539400000Y-258700000D03*
X539400000Y-253620000D03*
%TD*%
D17*
%TO.C,R25*%
X349900000Y-125300000D03*
X348250000Y-125300000D03*
%TD*%
D25*
%TO.C,F1*%
X309275000Y-270500000D03*
X311325000Y-270500000D03*
%TD*%
D26*
%TO.C,J14*%
X404060000Y-293400000D03*
D27*
X409140000Y-293400000D03*
%TD*%
D13*
%TO.C,IC3*%
X402892500Y-285340000D03*
X406892500Y-285340000D03*
%TD*%
D17*
%TO.C,R22*%
X454015000Y-125700000D03*
X452365000Y-125700000D03*
%TD*%
D14*
%TO.C,D2*%
X512987500Y-285700000D03*
X510012500Y-285700000D03*
%TD*%
D28*
%TO.C,F2*%
X394737500Y-287200000D03*
X397662500Y-287200000D03*
%TD*%
D15*
%TO.C,D7*%
X494312500Y-285300000D03*
X497287500Y-285300000D03*
%TD*%
D18*
%TO.C,H4*%
X545970000Y-123940000D03*
%TD*%
D29*
%TO.C,J17*%
X539100000Y-279037900D03*
X539100000Y-275537900D03*
%TD*%
D28*
%TO.C,F3*%
X394437500Y-295600000D03*
X397362500Y-295600000D03*
%TD*%
D14*
%TO.C,D9*%
X437175000Y-289400000D03*
X434200000Y-289400000D03*
%TD*%
%TO.C,D20*%
X327337500Y-293750000D03*
X324362500Y-293750000D03*
%TD*%
D15*
%TO.C,D17*%
X436125000Y-125100000D03*
X439100000Y-125100000D03*
%TD*%
D30*
%TO.C,RV1*%
X317800000Y-288987500D03*
X317800000Y-290812500D03*
%TD*%
D16*
%TO.C,J13*%
X539200000Y-245460000D03*
X539200000Y-240380000D03*
X539200000Y-235300000D03*
X539200000Y-230220000D03*
%TD*%
%TO.C,J19*%
X539080000Y-146010000D03*
X539080000Y-140930000D03*
X539080000Y-135850000D03*
%TD*%
D17*
%TO.C,R23*%
X432100000Y-125600000D03*
X430450000Y-125600000D03*
%TD*%
D31*
%TO.C,D21*%
X367400000Y-288350000D03*
X367400000Y-291650000D03*
%TD*%
D16*
%TO.C,J10*%
X297010000Y-145370000D03*
X297010000Y-140290000D03*
X297010000Y-135210000D03*
X297010000Y-130130000D03*
%TD*%
D32*
%TO.C,FB2*%
X444987500Y-289900000D03*
X442987500Y-289900000D03*
%TD*%
D16*
%TO.C,J1*%
X466980000Y-292700000D03*
X461900000Y-292700000D03*
%TD*%
D33*
%TO.C,J15*%
X522530000Y-135210000D03*
D34*
X525070000Y-135210000D03*
X522530000Y-137750000D03*
X525070000Y-137750000D03*
X522530000Y-140290000D03*
X525070000Y-140290000D03*
%TD*%
D21*
%TO.C,R12*%
X451950000Y-296400000D03*
X453600000Y-296400000D03*
%TD*%
%TO.C,R9*%
X501450000Y-285400000D03*
X503100000Y-285400000D03*
%TD*%
D35*
%TO.C,J5*%
X304600000Y-267300000D03*
D36*
X298300000Y-267300000D03*
D37*
X301700000Y-272100000D03*
%TD*%
D18*
%TO.C,H6*%
X546200000Y-296790000D03*
%TD*%
D38*
%TO.C,U1*%
X352750000Y-293240000D03*
X352750000Y-290700000D03*
X352750000Y-288160000D03*
%TD*%
D39*
%TO.C,J6*%
X295680000Y-283770000D03*
D40*
X302880000Y-283770000D03*
%TD*%
D15*
%TO.C,D8*%
X452512500Y-286000000D03*
X455487500Y-286000000D03*
%TD*%
D41*
%TO.C,IC1*%
X390137500Y-293150000D03*
X390137500Y-291250000D03*
X387862500Y-292200000D03*
%TD*%
D15*
%TO.C,D6*%
X309025000Y-285380000D03*
X312000000Y-285380000D03*
%TD*%
D16*
%TO.C,J9*%
X296200000Y-238300000D03*
X296200000Y-233220000D03*
X296200000Y-228140000D03*
X296200000Y-223060000D03*
%TD*%
D15*
%TO.C,D1*%
X523425000Y-150900000D03*
X526400000Y-150900000D03*
%TD*%
D16*
%TO.C,J7*%
X539300000Y-173360000D03*
X539300000Y-168280000D03*
X539300000Y-163200000D03*
X539300000Y-158120000D03*
%TD*%
D21*
%TO.C,R2*%
X517575000Y-285800000D03*
X519225000Y-285800000D03*
%TD*%
D15*
%TO.C,D12*%
X337512500Y-285100000D03*
X340487500Y-285100000D03*
%TD*%
D42*
%TO.C,U2*%
X417760000Y-286290000D03*
X417760000Y-287560000D03*
X417760000Y-288830000D03*
X417760000Y-290100000D03*
X422700000Y-290100000D03*
X422700000Y-288830000D03*
X422700000Y-287560000D03*
X422700000Y-286290000D03*
%TD*%
D43*
%TO.C,J16*%
X525200000Y-271037900D03*
D44*
X525200000Y-273577900D03*
X525200000Y-276117900D03*
X525200000Y-278657900D03*
X525200000Y-281197900D03*
X525200000Y-283737900D03*
%TD*%
D15*
%TO.C,D19*%
X354525000Y-124900000D03*
X357500000Y-124900000D03*
%TD*%
D17*
%TO.C,R8*%
X319425000Y-294000000D03*
X317775000Y-294000000D03*
%TD*%
D45*
%TO.C,S1*%
X323300000Y-287552500D03*
D23*
X328000000Y-287552500D03*
X332700000Y-287552500D03*
%TD*%
D16*
%TO.C,J2*%
X482440000Y-292550000D03*
X477360000Y-292550000D03*
%TD*%
D15*
%TO.C,D18*%
X390125000Y-125300000D03*
X393100000Y-125300000D03*
%TD*%
D21*
%TO.C,R3*%
X521610000Y-191710000D03*
X523260000Y-191710000D03*
%TD*%
D17*
%TO.C,R7*%
X308600000Y-240000000D03*
X306950000Y-240000000D03*
%TD*%
D21*
%TO.C,R13*%
X429562500Y-292400000D03*
X431212500Y-292400000D03*
%TD*%
D18*
%TO.C,H5*%
X422560000Y-296690000D03*
%TD*%
D21*
%TO.C,R18*%
X337475000Y-289000000D03*
X339125000Y-289000000D03*
%TD*%
D46*
%TO.C,BZ1*%
X309300000Y-252300000D03*
D47*
X301690000Y-252300000D03*
%TD*%
D48*
%TO.C,K12*%
X512630000Y-167582500D03*
D49*
X524630000Y-167582500D03*
D50*
X518630000Y-165582500D03*
D49*
X512630000Y-179782500D03*
X524630000Y-179782500D03*
%TD*%
D51*
%TO.C,K2*%
X354030000Y-148040000D03*
D49*
X354030000Y-160040000D03*
D50*
X356030000Y-154040000D03*
D49*
X341830000Y-148040000D03*
X341830000Y-160040000D03*
%TD*%
D51*
%TO.C,K1*%
X421977500Y-218140000D03*
D49*
X421977500Y-230140000D03*
D50*
X423977500Y-224140000D03*
D49*
X409777500Y-218140000D03*
X409777500Y-230140000D03*
%TD*%
D51*
%TO.C,K6*%
X490967500Y-218100000D03*
D49*
X490967500Y-230100000D03*
D50*
X492967500Y-224100000D03*
D49*
X478767500Y-218100000D03*
X478767500Y-230100000D03*
%TD*%
D51*
%TO.C,K4*%
X456620000Y-218070000D03*
D49*
X456620000Y-230070000D03*
D50*
X458620000Y-224070000D03*
D49*
X444420000Y-218070000D03*
X444420000Y-230070000D03*
%TD*%
D48*
%TO.C,K15*%
X513490000Y-225330000D03*
D49*
X525490000Y-225330000D03*
D50*
X519490000Y-223330000D03*
D49*
X513490000Y-237530000D03*
X525490000Y-237530000D03*
%TD*%
D51*
%TO.C,K10*%
X310040000Y-152040000D03*
D49*
X310040000Y-164040000D03*
D50*
X312040000Y-158040000D03*
D49*
X297840000Y-152040000D03*
X297840000Y-164040000D03*
%TD*%
D51*
%TO.C,K13*%
X387847500Y-218140000D03*
D49*
X387847500Y-230140000D03*
D50*
X389847500Y-224140000D03*
D49*
X375647500Y-218140000D03*
X375647500Y-230140000D03*
%TD*%
D51*
%TO.C,K8*%
X310017500Y-204005000D03*
D49*
X310017500Y-216005000D03*
D50*
X312017500Y-210005000D03*
D49*
X297817500Y-204005000D03*
X297817500Y-216005000D03*
%TD*%
D51*
%TO.C,K11*%
X353127500Y-218090000D03*
D49*
X353127500Y-230090000D03*
D50*
X355127500Y-224090000D03*
D49*
X340927500Y-218090000D03*
X340927500Y-230090000D03*
%TD*%
D43*
%TO.C,J11*%
X318400000Y-233040000D03*
D44*
X320940000Y-233040000D03*
X318400000Y-235580000D03*
X320940000Y-235580000D03*
X318400000Y-238120000D03*
X320940000Y-238120000D03*
X318400000Y-240660000D03*
X320940000Y-240660000D03*
X318400000Y-243200000D03*
X320940000Y-243200000D03*
X318400000Y-245740000D03*
X320940000Y-245740000D03*
X318400000Y-248280000D03*
X320940000Y-248280000D03*
X318400000Y-250820000D03*
X320940000Y-250820000D03*
X318400000Y-253360000D03*
X320940000Y-253360000D03*
X318400000Y-255900000D03*
X320940000Y-255900000D03*
X318400000Y-258440000D03*
X320940000Y-258440000D03*
X318400000Y-260980000D03*
X320940000Y-260980000D03*
X318400000Y-263520000D03*
X320940000Y-263520000D03*
X318400000Y-266060000D03*
X320940000Y-266060000D03*
X318400000Y-268600000D03*
X320940000Y-268600000D03*
X318400000Y-271140000D03*
X320940000Y-271140000D03*
X318400000Y-273680000D03*
X320940000Y-273680000D03*
X318400000Y-276220000D03*
X320940000Y-276220000D03*
X318400000Y-278760000D03*
X320940000Y-278760000D03*
X318400000Y-281300000D03*
X320940000Y-281300000D03*
%TD*%
D51*
%TO.C,K14*%
X458407500Y-266762500D03*
D49*
X458407500Y-278762500D03*
D50*
X460407500Y-272762500D03*
D49*
X446207500Y-266762500D03*
X446207500Y-278762500D03*
%TD*%
D51*
%TO.C,K5*%
X422387500Y-148170000D03*
D49*
X422387500Y-160170000D03*
D50*
X424387500Y-154170000D03*
D49*
X410187500Y-148170000D03*
X410187500Y-160170000D03*
%TD*%
D51*
%TO.C,K3*%
X388450000Y-148150000D03*
D49*
X388450000Y-160150000D03*
D50*
X390450000Y-154150000D03*
D49*
X376250000Y-148150000D03*
X376250000Y-160150000D03*
%TD*%
D51*
%TO.C,K9*%
X490500000Y-148100000D03*
D49*
X490500000Y-160100000D03*
D50*
X492500000Y-154100000D03*
D49*
X478300000Y-148100000D03*
X478300000Y-160100000D03*
%TD*%
D51*
%TO.C,K7*%
X456770000Y-148040000D03*
D49*
X456770000Y-160040000D03*
D50*
X458770000Y-154040000D03*
D49*
X444570000Y-148040000D03*
X444570000Y-160040000D03*
%TD*%
M02*
