M48
; DRILL file {KiCad 8.0.5} date 2025-05-12T12:19:02+0530
; FORMAT={-:-/ absolute / inch / decimal}
; #@! TF.CreationDate,2025-05-12T12:19:02+05:30
; #@! TF.GenerationSoftware,Kicad,Pcbnew,8.0.5
; #@! TF.FileFunction,Plated,1,14,PTH
FMAT,2
INCH
; #@! TA.AperFunction,Plated,PTH,ViaDrill
T1C0.0118
; #@! TA.AperFunction,Plated,PTH,ComponentDrill
T2C0.0394
; #@! TA.AperFunction,Plated,PTH,ComponentDrill
T3C0.0394
; #@! TA.AperFunction,Plated,PTH,ComponentDrill
T4C0.0508
; #@! TA.AperFunction,Plated,PTH,ComponentDrill
T5C0.0512
; #@! TA.AperFunction,Plated,PTH,ComponentDrill
T6C0.0520
; #@! TA.AperFunction,Plated,PTH,ViaDrill
T7C0.0535
; #@! TA.AperFunction,Plated,PTH,ComponentDrill
T8C0.0598
; #@! TA.AperFunction,Plated,PTH,ComponentDrill
T9C0.0630
; #@! TA.AperFunction,Plated,PTH,ComponentDrill
T10C0.0728
; #@! TA.AperFunction,Plated,PTH,ComponentDrill
T11C0.1260
; #@! TA.AperFunction,Plated,PTH,ComponentDrill
T12C0.1772
%
G90
G05
T1
X11.5982Y-6.3359
X11.6197Y-8.6268
X11.8689Y-10.6382
X11.915Y-10.5942
X12.028Y-8.6264
X12.0761Y-7.9737
X12.0921Y-10.4583
X12.1669Y-8.1805
X12.2313Y-10.0074
X12.3019Y-8.0818
X12.3102Y-8.7091
X12.311Y-8.8136
X12.311Y-9.9912
X12.3248Y-6.5718
X12.3338Y-8.4674
X12.4374Y-6.6409
X12.4453Y-10.6756
X12.448Y-6.4669
X12.5272Y-8.8968
X12.5508Y-6.2963
X12.6905Y-6.3328
X12.7417Y-9.3815
X12.7633Y-10.9017
X12.7961Y-6.218
X12.7961Y-8.2059
X12.7967Y-10.4748
X12.8056Y-11.062
X12.8421Y-9.9886
X12.8657Y-10.5256
X12.9343Y-10.0717
X13.0677Y-9.5874
X13.2118Y-10.4319
X13.2698Y-8.4616
X13.2769Y-9.5196
X13.335Y-9.9237
X13.3601Y-8.7868
X13.3636Y-11.0886
X13.3853Y-11.1507
X13.3882Y-10.3882
X13.4267Y-8.3443
X13.5035Y-10.6209
X13.5457Y-9.5091
X13.5799Y-8.3816
X13.621Y-8.2225
X13.7518Y-8.4455
X13.7627Y-8.018
X13.8068Y-9.2838
X13.8567Y-4.921
X13.8778Y-9.1497
X13.9984Y-6.1622
X13.9995Y-11.053
X14.021Y-8.9765
X14.0924Y-10.8068
X14.1705Y-6.1496
X14.2315Y-8.9236
X14.2661Y-8.9028
X14.3405Y-6.7685
X14.3528Y-8.8661
X14.362Y-7.5486
X14.5638Y-8.7139
X14.8002Y-7.0041
X14.8487Y-6.4367
X14.9173Y-5.7574
X14.9173Y-9.5196
X14.9173Y-10.9253
X14.9351Y-6.4579
X14.9424Y-6.5969
X15.2708Y-10.2271
X15.2708Y-11.2087
X15.4141Y-9.8676
X15.4173Y-11.6146
X15.5065Y-5.0389
X15.5939Y-11.2826
X15.635Y-5.7257
X15.6529Y-9.0331
X15.6689Y-11.5382
X15.7325Y-11.2778
X15.8264Y-10.8757
X15.86Y-10.345
X15.9779Y-11.3083
X15.9779Y-11.4062
X16.1811Y-9.2513
X16.1886Y-11.3968
X16.2136Y-11.2096
X16.3314Y-5.3835
X16.539Y-10.2472
X16.8028Y-5.5851
X16.9005Y-8.6727
X17.0221Y-6.3055
X17.0385Y-11.2883
X17.2741Y-5.0389
X17.3496Y-10.3248
X17.4669Y-10.1119
X17.6636Y-5.5509
X17.739Y-10.3248
X17.8008Y-9.2031
X17.8634Y-5.0389
X17.8962Y-11.0179
X18.0281Y-10.1223
X18.0917Y-9.1941
X18.1128Y-6.233
X18.2126Y-6.315
X18.2205Y-6.1866
X18.2827Y-10.995
X18.4354Y-10.9472
X18.4581Y-11.1704
X18.813Y-10.5709
X18.9866Y-10.9146
X19.3953Y-7.0434
X19.4218Y-4.921
X19.497Y-8.9707
X19.5169Y-5.5143
X19.5863Y-11.1546
X19.6937Y-8.9276
X20.4219Y-10.7328
X20.4934Y-9.1658
X20.5356Y-8.5854
X20.6195Y-6.5259
X20.6564Y-6.2247
X20.6709Y-8.4912
X20.728Y-6.4865
X20.8094Y-8.4584
X20.8618Y-6.1898
X20.8907Y-8.4584
X20.98Y-9.2838
X21.0855Y-6.6122
T2
X12.5354Y-9.1748
X12.5354Y-9.2748
X12.5354Y-9.3748
X12.5354Y-9.4748
X12.5354Y-9.5748
X12.5354Y-9.6748
X12.5354Y-9.7748
X12.5354Y-9.8748
X12.5354Y-9.9748
X12.5354Y-10.0748
X12.5354Y-10.1748
X12.5354Y-10.2748
X12.5354Y-10.3748
X12.5354Y-10.4748
X12.5354Y-10.5748
X12.5354Y-10.6748
X12.5354Y-10.7748
X12.5354Y-10.8748
X12.5354Y-10.9748
X12.5354Y-11.0748
X12.6354Y-9.1748
X12.6354Y-9.2748
X12.6354Y-9.3748
X12.6354Y-9.4748
X12.6354Y-9.5748
X12.6354Y-9.6748
X12.6354Y-9.7748
X12.6354Y-9.8748
X12.6354Y-9.9748
X12.6354Y-10.0748
X12.6354Y-10.1748
X12.6354Y-10.2748
X12.6354Y-10.3748
X12.6354Y-10.4748
X12.6354Y-10.5748
X12.6354Y-10.6748
X12.6354Y-10.7748
X12.6354Y-10.8748
X12.6354Y-10.9748
X12.6354Y-11.0748
X13.8878Y-11.3449
X13.8878Y-11.4449
X13.8878Y-11.5449
X20.572Y-5.3232
X20.572Y-5.4232
X20.572Y-5.5232
X20.672Y-5.3232
X20.672Y-5.4232
X20.672Y-5.5232
X20.6772Y-10.6708
X20.6772Y-10.7708
X20.6772Y-10.8708
X20.6772Y-10.9708
X20.6772Y-11.0708
X20.6772Y-11.1708
T3
X11.8776Y-9.9331
X12.1772Y-9.9331
T4
X12.2842Y-8.2679
X12.285Y-6.222
X13.9814Y-8.8224
X14.0169Y-6.0646
X15.3483Y-8.8244
X15.372Y-6.0689
X16.692Y-8.8244
X16.7082Y-6.0697
X18.0559Y-8.8217
X18.0618Y-6.0646
X18.1263Y-10.7387
X19.3898Y-6.0669
X19.4082Y-8.8228
X20.4185Y-6.519
X20.4524Y-8.7925
T5
X21.2244Y-10.8479
X21.2244Y-10.9857
T6
X11.7251Y-8.0317
X11.7251Y-8.5041
X11.726Y-5.9858
X11.726Y-6.4583
X12.2054Y-8.0317
X12.2054Y-8.5041
X12.2063Y-5.9858
X12.2063Y-6.4583
X13.4223Y-8.5862
X13.4223Y-9.0587
X13.4579Y-5.8283
X13.4579Y-6.3008
X13.9027Y-8.5862
X13.9027Y-9.0587
X13.9382Y-5.8283
X13.9382Y-6.3008
X14.7893Y-8.5882
X14.7893Y-9.0606
X14.813Y-5.8327
X14.813Y-6.3051
X15.2696Y-8.5882
X15.2696Y-9.0606
X15.2933Y-5.8327
X15.2933Y-6.3051
X16.133Y-8.5882
X16.133Y-9.0606
X16.1491Y-5.8335
X16.1491Y-6.3059
X16.6133Y-8.5882
X16.6133Y-9.0606
X16.6294Y-5.8335
X16.6294Y-6.3059
X17.4969Y-8.5854
X17.4969Y-9.0579
X17.5028Y-5.8283
X17.5028Y-6.3008
X17.5672Y-10.5025
X17.5672Y-10.9749
X17.9772Y-8.5854
X17.9772Y-9.0579
X17.9831Y-5.8283
X17.9831Y-6.3008
X18.0475Y-10.5025
X18.0475Y-10.9749
X18.8307Y-5.8307
X18.8307Y-6.3031
X18.8491Y-8.5866
X18.8491Y-9.0591
X19.311Y-5.8307
X19.311Y-6.3031
X19.3294Y-8.5866
X19.3294Y-9.0591
X20.1823Y-6.5977
X20.1823Y-7.0781
X20.2161Y-8.8713
X20.2161Y-9.3516
X20.6547Y-6.5977
X20.6547Y-7.0781
X20.6886Y-8.8713
X20.6886Y-9.3516
T7
X13.3917Y-7.4535
X13.3945Y-10.1874
X13.4795Y-7.2071
X13.4823Y-9.9409
X13.5409Y-6.9382
X13.5437Y-9.672
X13.6634Y-6.813
X13.6661Y-9.5469
X13.7094Y-5.6209
X13.7122Y-8.3547
X13.7591Y-5.5209
X13.7618Y-8.2547
X13.9579Y-5.5209
X13.9606Y-8.2547
X14.0008Y-6.8039
X14.0035Y-9.5378
X14.1291Y-6.939
X14.1319Y-9.6728
X14.1854Y-7.1988
X14.1882Y-9.9327
X14.2752Y-7.4516
X14.278Y-10.1854
X14.7492Y-7.4531
X14.752Y-10.187
X14.837Y-7.2067
X14.8398Y-9.9406
X14.8984Y-6.9378
X14.9012Y-9.6717
X15.0209Y-6.8126
X15.0236Y-9.5465
X15.0669Y-5.6205
X15.0697Y-8.3543
X15.1165Y-5.5205
X15.1193Y-8.2543
X15.3154Y-5.5205
X15.3181Y-8.2543
X15.3583Y-6.8035
X15.361Y-9.5374
X15.4866Y-6.9386
X15.4894Y-9.6724
X15.5429Y-7.1984
X15.5457Y-9.9323
X15.6327Y-7.4512
X15.6354Y-10.185
X16.1063Y-7.4531
X16.1091Y-10.187
X16.1941Y-7.2067
X16.1969Y-9.9406
X16.2555Y-6.9378
X16.2583Y-9.6717
X16.378Y-6.8126
X16.3807Y-9.5465
X16.424Y-5.6205
X16.4268Y-8.3543
X16.4736Y-5.5205
X16.4764Y-8.2543
X16.6724Y-5.5205
X16.6752Y-8.2543
X16.7154Y-6.8035
X16.7181Y-9.5374
X16.8437Y-6.9386
X16.8465Y-9.6724
X16.9Y-7.1984
X16.9028Y-9.9323
X16.9898Y-7.4512
X16.9925Y-10.185
X17.4638Y-7.4528
X17.4665Y-10.1866
X17.5516Y-7.2063
X17.5543Y-9.9402
X17.613Y-6.9374
X17.6157Y-9.6713
X17.7354Y-6.8122
X17.7382Y-9.5461
X17.7815Y-5.6201
X17.7843Y-8.3539
X17.8311Y-5.5201
X17.8339Y-8.2539
X18.0299Y-5.5201
X18.0327Y-8.2539
X18.0728Y-6.8031
X18.0756Y-9.537
X18.2012Y-6.9382
X18.2039Y-9.672
X18.2575Y-7.198
X18.2602Y-9.9319
X18.3472Y-7.4508
X18.35Y-10.1846
X18.8217Y-7.4528
X18.8244Y-10.1866
X18.9094Y-7.2063
X18.9122Y-9.9402
X18.9709Y-6.9374
X18.9736Y-9.6713
X19.0933Y-6.8122
X19.0961Y-9.5461
X19.1394Y-5.6201
X19.1421Y-8.3539
X19.189Y-5.5201
X19.1917Y-8.2539
X19.3878Y-5.5201
X19.3906Y-8.2539
X19.4307Y-6.8031
X19.4335Y-9.537
X19.5591Y-6.9382
X19.5618Y-9.672
X19.6154Y-7.198
X19.6181Y-9.9319
X19.7051Y-7.4508
X19.7079Y-10.1846
T8
X15.9079Y-11.5512
X16.1079Y-11.5512
T9
X11.6614Y-8.7819
X11.6614Y-8.9819
X11.6614Y-9.1819
X11.6614Y-9.3819
X11.6933Y-5.1232
X11.6933Y-5.3232
X11.6933Y-5.5232
X11.6933Y-5.7232
X18.185Y-11.5236
X18.385Y-11.5236
X18.7937Y-11.5177
X18.9937Y-11.5177
X21.2236Y-5.3484
X21.2236Y-5.5484
X21.2236Y-5.7484
X21.2283Y-8.1346
X21.2283Y-8.3346
X21.2283Y-8.5346
X21.2283Y-8.7346
X21.2283Y-9.0638
X21.2283Y-9.2638
X21.2283Y-9.4638
X21.2283Y-9.6638
X21.2323Y-6.2252
X21.2323Y-6.4252
X21.2323Y-6.6252
X21.2323Y-6.8252
X21.2323Y-7.1937
X21.2323Y-7.3937
X21.2323Y-7.5937
X21.2323Y-7.7937
X21.2362Y-9.985
X21.2362Y-10.185
T10
X11.9664Y-7.6628
X11.9664Y-7.8128
X12.0515Y-7.1628
X12.1515Y-7.6628
X12.1515Y-7.8128
X12.2515Y-7.1628
X12.3365Y-7.6628
X12.3365Y-7.8128
X12.7283Y-11.321
X12.9134Y-11.321
X13.0984Y-11.321
T11
X11.6063Y-11.6772
X11.6374Y-4.8807
X16.5559Y-4.8791
X16.6362Y-11.6807
X21.4949Y-4.8795
X21.5039Y-11.6846
T12
X11.6409Y-11.172
X11.9244Y-11.172
T2
G00X11.7441Y-10.4803
M15
G01X11.7441Y-10.5669
M16
G05
G00X11.9213Y-10.7126
M15
G01X11.8346Y-10.7126
M16
G05
G00X11.9921Y-10.4724
M15
G01X11.9921Y-10.5748
M16
G05
M30
