%TF.GenerationSoftware,KiCad,Pcbnew,8.0.5*%
%TF.CreationDate,2025-05-12T12:18:58+05:30*%
%TF.ProjectId,automation,6175746f-6d61-4746-996f-6e2e6b696361,rev?*%
%TF.SameCoordinates,Original*%
%TF.FileFunction,Other,User*%
%FSLAX46Y46*%
G04 Gerber Fmt 4.6, Leading zero omitted, Abs format (unit mm)*
G04 Created by KiCad (PCBNEW 8.0.5) date 2025-05-12 12:18:58*
%MOMM*%
%LPD*%
G01*
G04 APERTURE LIST*
%ADD10C,0.050000*%
G04 APERTURE END LIST*
D10*
%TO.C,R42*%
X395665000Y-227320000D02*
X398625000Y-227320000D01*
X395665000Y-228780000D02*
X395665000Y-227320000D01*
X398625000Y-227320000D02*
X398625000Y-228780000D01*
X398625000Y-228780000D02*
X395665000Y-228780000D01*
%TO.C,BZ1*%
X314000000Y-252300000D02*
G75*
G02*
X297000000Y-252300000I-8500000J0D01*
G01*
X297000000Y-252300000D02*
G75*
G02*
X314000000Y-252300000I8500000J0D01*
G01*
%TO.C,R21*%
X464760000Y-216095000D02*
X466220000Y-216095000D01*
X464760000Y-219055000D02*
X464760000Y-216095000D01*
X466220000Y-216095000D02*
X466220000Y-219055000D01*
X466220000Y-219055000D02*
X464760000Y-219055000D01*
%TO.C,K12*%
X510630000Y-163882500D02*
X526630000Y-163882500D01*
X510630000Y-183482500D02*
X510630000Y-163882500D01*
X526630000Y-163882500D02*
X526630000Y-183482500D01*
X526630000Y-183482500D02*
X510630000Y-183482500D01*
%TO.C,Q7*%
X464720000Y-152462500D02*
X464720000Y-156302500D01*
X464720000Y-156302500D02*
X468120000Y-156302500D01*
X468120000Y-152462500D02*
X464720000Y-152462500D01*
X468120000Y-156302500D02*
X468120000Y-152462500D01*
%TO.C,Q2*%
X361870600Y-153352500D02*
X361870600Y-157192500D01*
X361870600Y-157192500D02*
X365270600Y-157192500D01*
X365270600Y-153352500D02*
X361870600Y-153352500D01*
X365270600Y-157192500D02*
X365270600Y-153352500D01*
%TO.C,D46*%
X498440000Y-149432500D02*
X500340000Y-149432500D01*
X498440000Y-152792500D02*
X498440000Y-149432500D01*
X500340000Y-149432500D02*
X500340000Y-152792500D01*
X500340000Y-152792500D02*
X498440000Y-152792500D01*
%TO.C,D36*%
X426847500Y-146190000D02*
X430047500Y-146190000D01*
X426847500Y-152990000D02*
X426847500Y-146190000D01*
X430047500Y-146190000D02*
X430047500Y-152990000D01*
X430047500Y-152990000D02*
X426847500Y-152990000D01*
%TO.C,K2*%
X338130000Y-146040000D02*
X357730000Y-146040000D01*
X338130000Y-162040000D02*
X338130000Y-146040000D01*
X357730000Y-146040000D02*
X357730000Y-162040000D01*
X357730000Y-162040000D02*
X338130000Y-162040000D01*
%TO.C,R20*%
X396472500Y-146150000D02*
X397932500Y-146150000D01*
X396472500Y-149110000D02*
X396472500Y-146150000D01*
X397932500Y-146150000D02*
X397932500Y-149110000D01*
X397932500Y-149110000D02*
X396472500Y-149110000D01*
%TO.C,D35*%
X498850000Y-219582500D02*
X500750000Y-219582500D01*
X498850000Y-222942500D02*
X498850000Y-219582500D01*
X500750000Y-219582500D02*
X500750000Y-222942500D01*
X500750000Y-222942500D02*
X498850000Y-222942500D01*
%TO.C,D56*%
X510560000Y-159890000D02*
X517360000Y-159890000D01*
X510560000Y-163090000D02*
X510560000Y-159890000D01*
X517360000Y-159890000D02*
X517360000Y-163090000D01*
X517360000Y-163090000D02*
X510560000Y-163090000D01*
%TO.C,K1*%
X406077500Y-216140000D02*
X425677500Y-216140000D01*
X406077500Y-232140000D02*
X406077500Y-216140000D01*
X425677500Y-216140000D02*
X425677500Y-232140000D01*
X425677500Y-232140000D02*
X406077500Y-232140000D01*
%TO.C,D57*%
X519850000Y-159850000D02*
X526650000Y-159850000D01*
X519850000Y-163050000D02*
X519850000Y-159850000D01*
X526650000Y-159850000D02*
X526650000Y-163050000D01*
X526650000Y-163050000D02*
X519850000Y-163050000D01*
%TO.C,C10*%
X318235000Y-216585000D02*
X321195000Y-216585000D01*
X318235000Y-218045000D02*
X318235000Y-216585000D01*
X321195000Y-216585000D02*
X321195000Y-218045000D01*
X321195000Y-218045000D02*
X318235000Y-218045000D01*
%TO.C,D26*%
X358492500Y-146040000D02*
X361692500Y-146040000D01*
X358492500Y-152840000D02*
X358492500Y-146040000D01*
X361692500Y-146040000D02*
X361692500Y-152840000D01*
X361692500Y-152840000D02*
X358492500Y-152840000D01*
%TO.C,D41*%
X461240000Y-146070000D02*
X464440000Y-146070000D01*
X461240000Y-152870000D02*
X461240000Y-146070000D01*
X464440000Y-146070000D02*
X464440000Y-152870000D01*
X464440000Y-152870000D02*
X461240000Y-152870000D01*
%TO.C,Q15*%
X518747500Y-213787500D02*
X518747500Y-217187500D01*
X518747500Y-217187500D02*
X522587500Y-217187500D01*
X522587500Y-213787500D02*
X518747500Y-213787500D01*
X522587500Y-217187500D02*
X522587500Y-213787500D01*
%TO.C,K6*%
X475067500Y-216100000D02*
X494667500Y-216100000D01*
X475067500Y-232100000D02*
X475067500Y-216100000D01*
X494667500Y-216100000D02*
X494667500Y-232100000D01*
X494667500Y-232100000D02*
X475067500Y-232100000D01*
%TO.C,C5*%
X396352500Y-160230000D02*
X399312500Y-160230000D01*
X396352500Y-161690000D02*
X396352500Y-160230000D01*
X399312500Y-160230000D02*
X399312500Y-161690000D01*
X399312500Y-161690000D02*
X396352500Y-161690000D01*
%TO.C,R41*%
X522210000Y-156612500D02*
X523670000Y-156612500D01*
X522210000Y-159572500D02*
X522210000Y-156612500D01*
X523670000Y-156612500D02*
X523670000Y-159572500D01*
X523670000Y-159572500D02*
X522210000Y-159572500D01*
%TO.C,D50*%
X314510000Y-150100000D02*
X317710000Y-150100000D01*
X314510000Y-156900000D02*
X314510000Y-150100000D01*
X317710000Y-150100000D02*
X317710000Y-156900000D01*
X317710000Y-156900000D02*
X314510000Y-156900000D01*
%TO.C,Q5*%
X430250000Y-153602500D02*
X430250000Y-157442500D01*
X430250000Y-157442500D02*
X433650000Y-157442500D01*
X433650000Y-153602500D02*
X430250000Y-153602500D01*
X433650000Y-157442500D02*
X433650000Y-153602500D01*
%TO.C,C3*%
X429970000Y-230100000D02*
X432930000Y-230100000D01*
X429970000Y-231560000D02*
X429970000Y-230100000D01*
X432930000Y-230100000D02*
X432930000Y-231560000D01*
X432930000Y-231560000D02*
X429970000Y-231560000D01*
%TO.C,R30*%
X498870000Y-216425000D02*
X500330000Y-216425000D01*
X498870000Y-219385000D02*
X498870000Y-216425000D01*
X500330000Y-216425000D02*
X500330000Y-219385000D01*
X500330000Y-219385000D02*
X498870000Y-219385000D01*
%TO.C,R15*%
X396372500Y-157230000D02*
X399332500Y-157230000D01*
X396372500Y-158690000D02*
X396372500Y-157230000D01*
X399332500Y-157230000D02*
X399332500Y-158690000D01*
X399332500Y-158690000D02*
X396372500Y-158690000D01*
%TO.C,Q3*%
X396372500Y-153110000D02*
X396372500Y-156950000D01*
X396372500Y-156950000D02*
X399772500Y-156950000D01*
X399772500Y-153110000D02*
X396372500Y-153110000D01*
X399772500Y-156950000D02*
X399772500Y-153110000D01*
%TO.C,D45*%
X314570000Y-211185000D02*
X317770000Y-211185000D01*
X314570000Y-217985000D02*
X314570000Y-211185000D01*
X317770000Y-211185000D02*
X317770000Y-217985000D01*
X317770000Y-217985000D02*
X314570000Y-217985000D01*
%TO.C,D44*%
X314500000Y-201965000D02*
X317700000Y-201965000D01*
X314500000Y-208765000D02*
X314500000Y-201965000D01*
X317700000Y-201965000D02*
X317700000Y-208765000D01*
X317700000Y-208765000D02*
X314500000Y-208765000D01*
%TO.C,K4*%
X440720000Y-216070000D02*
X460320000Y-216070000D01*
X440720000Y-232070000D02*
X440720000Y-216070000D01*
X460320000Y-216070000D02*
X460320000Y-232070000D01*
X460320000Y-232070000D02*
X440720000Y-232070000D01*
%TO.C,D48*%
X494982500Y-154120000D02*
X498182500Y-154120000D01*
X494982500Y-160920000D02*
X494982500Y-154120000D01*
X498182500Y-154120000D02*
X498182500Y-160920000D01*
X498182500Y-160920000D02*
X494982500Y-160920000D01*
%TO.C,Q10*%
X318040000Y-157067500D02*
X318040000Y-160907500D01*
X318040000Y-160907500D02*
X321440000Y-160907500D01*
X321440000Y-157067500D02*
X318040000Y-157067500D01*
X321440000Y-160907500D02*
X321440000Y-157067500D01*
%TO.C,K15*%
X511490000Y-221630000D02*
X527490000Y-221630000D01*
X511490000Y-241230000D02*
X511490000Y-221630000D01*
X527490000Y-221630000D02*
X527490000Y-241230000D01*
X527490000Y-241230000D02*
X511490000Y-241230000D01*
%TO.C,K10*%
X294140000Y-150040000D02*
X313740000Y-150040000D01*
X294140000Y-166040000D02*
X294140000Y-150040000D01*
X313740000Y-150040000D02*
X313740000Y-166040000D01*
X313740000Y-166040000D02*
X294140000Y-166040000D01*
%TO.C,C7*%
X430230000Y-160630000D02*
X433190000Y-160630000D01*
X430230000Y-162090000D02*
X430230000Y-160630000D01*
X433190000Y-160630000D02*
X433190000Y-162090000D01*
X433190000Y-162090000D02*
X430230000Y-162090000D01*
%TO.C,R10*%
X430000000Y-216605000D02*
X431460000Y-216605000D01*
X430000000Y-219565000D02*
X430000000Y-216605000D01*
X431460000Y-216605000D02*
X431460000Y-219565000D01*
X431460000Y-219565000D02*
X430000000Y-219565000D01*
%TO.C,C15*%
X395605000Y-230100000D02*
X398565000Y-230100000D01*
X395605000Y-231560000D02*
X395605000Y-230100000D01*
X398565000Y-230100000D02*
X398565000Y-231560000D01*
X398565000Y-231560000D02*
X395605000Y-231560000D01*
%TO.C,R38*%
X360755000Y-227820000D02*
X363715000Y-227820000D01*
X360755000Y-229280000D02*
X360755000Y-227820000D01*
X363715000Y-227820000D02*
X363715000Y-229280000D01*
X363715000Y-229280000D02*
X360755000Y-229280000D01*
%TO.C,D52*%
X361030000Y-220370000D02*
X362930000Y-220370000D01*
X361030000Y-223730000D02*
X361030000Y-220370000D01*
X362930000Y-220370000D02*
X362930000Y-223730000D01*
X362930000Y-223730000D02*
X361030000Y-223730000D01*
%TO.C,D63*%
X462780000Y-273472500D02*
X465980000Y-273472500D01*
X462780000Y-280272500D02*
X462780000Y-273472500D01*
X465980000Y-273472500D02*
X465980000Y-280272500D01*
X465980000Y-280272500D02*
X462780000Y-280272500D01*
%TO.C,Q13*%
X395640000Y-223222500D02*
X395640000Y-227062500D01*
X395640000Y-227062500D02*
X399040000Y-227062500D01*
X399040000Y-223222500D02*
X395640000Y-223222500D01*
X399040000Y-227062500D02*
X399040000Y-223222500D01*
%TO.C,D38*%
X495427500Y-216120000D02*
X498627500Y-216120000D01*
X495427500Y-222920000D02*
X495427500Y-216120000D01*
X498627500Y-216120000D02*
X498627500Y-222920000D01*
X498627500Y-222920000D02*
X495427500Y-222920000D01*
%TO.C,R43*%
X510550000Y-158120000D02*
X513510000Y-158120000D01*
X510550000Y-159580000D02*
X510550000Y-158120000D01*
X513510000Y-158120000D02*
X513510000Y-159580000D01*
X513510000Y-159580000D02*
X510550000Y-159580000D01*
%TO.C,D40*%
X464740000Y-148992500D02*
X466640000Y-148992500D01*
X464740000Y-152352500D02*
X464740000Y-148992500D01*
X466640000Y-148992500D02*
X466640000Y-152352500D01*
X466640000Y-152352500D02*
X464740000Y-152352500D01*
%TO.C,R35*%
X498435000Y-156820000D02*
X501395000Y-156820000D01*
X498435000Y-158280000D02*
X498435000Y-156820000D01*
X501395000Y-156820000D02*
X501395000Y-158280000D01*
X501395000Y-158280000D02*
X498435000Y-158280000D01*
%TO.C,D61*%
X466360000Y-268130000D02*
X468260000Y-268130000D01*
X466360000Y-271490000D02*
X466360000Y-268130000D01*
X468260000Y-268130000D02*
X468260000Y-271490000D01*
X468260000Y-271490000D02*
X466360000Y-271490000D01*
%TO.C,K13*%
X371947500Y-216140000D02*
X391547500Y-216140000D01*
X371947500Y-232140000D02*
X371947500Y-216140000D01*
X391547500Y-216140000D02*
X391547500Y-232140000D01*
X391547500Y-232140000D02*
X371947500Y-232140000D01*
%TO.C,D24*%
X426487500Y-216190000D02*
X429687500Y-216190000D01*
X426487500Y-222990000D02*
X426487500Y-216190000D01*
X429687500Y-216190000D02*
X429687500Y-222990000D01*
X429687500Y-222990000D02*
X426487500Y-222990000D01*
%TO.C,D33*%
X461080000Y-224390000D02*
X464280000Y-224390000D01*
X461080000Y-231190000D02*
X461080000Y-224390000D01*
X464280000Y-224390000D02*
X464280000Y-231190000D01*
X464280000Y-231190000D02*
X461080000Y-231190000D01*
%TO.C,R40*%
X361160000Y-215925000D02*
X362620000Y-215925000D01*
X361160000Y-218885000D02*
X361160000Y-215925000D01*
X362620000Y-215925000D02*
X362620000Y-218885000D01*
X362620000Y-218885000D02*
X361160000Y-218885000D01*
%TO.C,D27*%
X358330600Y-155200000D02*
X361530600Y-155200000D01*
X358330600Y-162000000D02*
X358330600Y-155200000D01*
X361530600Y-155200000D02*
X361530600Y-162000000D01*
X361530600Y-162000000D02*
X358330600Y-162000000D01*
%TO.C,D60*%
X392147500Y-224610000D02*
X395347500Y-224610000D01*
X392147500Y-231410000D02*
X392147500Y-224610000D01*
X395347500Y-224610000D02*
X395347500Y-231410000D01*
X395347500Y-231410000D02*
X392147500Y-231410000D01*
%TO.C,C16*%
X466465000Y-278722500D02*
X469425000Y-278722500D01*
X466465000Y-280182500D02*
X466465000Y-278722500D01*
X469425000Y-278722500D02*
X469425000Y-280182500D01*
X469425000Y-280182500D02*
X466465000Y-280182500D01*
%TO.C,C8*%
X498845000Y-230000000D02*
X501805000Y-230000000D01*
X498845000Y-231460000D02*
X498845000Y-230000000D01*
X501805000Y-230000000D02*
X501805000Y-231460000D01*
X501805000Y-231460000D02*
X498845000Y-231460000D01*
%TO.C,K8*%
X294117500Y-202005000D02*
X313717500Y-202005000D01*
X294117500Y-218005000D02*
X294117500Y-202005000D01*
X313717500Y-202005000D02*
X313717500Y-218005000D01*
X313717500Y-218005000D02*
X294117500Y-218005000D01*
%TO.C,R32*%
X464700000Y-145895000D02*
X466160000Y-145895000D01*
X464700000Y-148855000D02*
X464700000Y-145895000D01*
X466160000Y-145895000D02*
X466160000Y-148855000D01*
X466160000Y-148855000D02*
X464700000Y-148855000D01*
%TO.C,Q14*%
X466280000Y-271730000D02*
X466280000Y-275570000D01*
X466280000Y-275570000D02*
X469680000Y-275570000D01*
X469680000Y-271730000D02*
X466280000Y-271730000D01*
X469680000Y-275570000D02*
X469680000Y-271730000D01*
%TO.C,R26*%
X430260000Y-157680000D02*
X433220000Y-157680000D01*
X430260000Y-159140000D02*
X430260000Y-157680000D01*
X433220000Y-157680000D02*
X433220000Y-159140000D01*
X433220000Y-159140000D02*
X430260000Y-159140000D01*
%TO.C,D32*%
X461160000Y-215950000D02*
X464360000Y-215950000D01*
X461160000Y-222750000D02*
X461160000Y-215950000D01*
X464360000Y-215950000D02*
X464360000Y-222750000D01*
X464360000Y-222750000D02*
X461160000Y-222750000D01*
%TO.C,Q9*%
X498420000Y-152872500D02*
X498420000Y-156712500D01*
X498420000Y-156712500D02*
X501820000Y-156712500D01*
X501820000Y-152872500D02*
X498420000Y-152872500D01*
X501820000Y-156712500D02*
X501820000Y-152872500D01*
%TO.C,D42*%
X461000000Y-154600000D02*
X464200000Y-154600000D01*
X461000000Y-161400000D02*
X461000000Y-154600000D01*
X464200000Y-154600000D02*
X464200000Y-161400000D01*
X464200000Y-161400000D02*
X461000000Y-161400000D01*
%TO.C,D30*%
X392952500Y-146192500D02*
X396152500Y-146192500D01*
X392952500Y-152992500D02*
X392952500Y-146192500D01*
X396152500Y-146192500D02*
X396152500Y-152992500D01*
X396152500Y-152992500D02*
X392952500Y-152992500D01*
%TO.C,D34*%
X430410000Y-149922500D02*
X432310000Y-149922500D01*
X430410000Y-153282500D02*
X430410000Y-149922500D01*
X432310000Y-149922500D02*
X432310000Y-153282500D01*
X432310000Y-153282500D02*
X430410000Y-153282500D01*
%TO.C,R33*%
X318105000Y-213165000D02*
X321065000Y-213165000D01*
X318105000Y-214625000D02*
X318105000Y-213165000D01*
X321065000Y-213165000D02*
X321065000Y-214625000D01*
X321065000Y-214625000D02*
X318105000Y-214625000D01*
%TO.C,K11*%
X337227500Y-216090000D02*
X356827500Y-216090000D01*
X337227500Y-232090000D02*
X337227500Y-216090000D01*
X356827500Y-216090000D02*
X356827500Y-232090000D01*
X356827500Y-232090000D02*
X337227500Y-232090000D01*
%TO.C,R45*%
X466255000Y-275832500D02*
X469215000Y-275832500D01*
X466255000Y-277292500D02*
X466255000Y-275832500D01*
X469215000Y-275832500D02*
X469215000Y-277292500D01*
X469215000Y-277292500D02*
X466255000Y-277292500D01*
%TO.C,R29*%
X430410000Y-146765000D02*
X431870000Y-146765000D01*
X430410000Y-149725000D02*
X430410000Y-146765000D01*
X431870000Y-146765000D02*
X431870000Y-149725000D01*
X431870000Y-149725000D02*
X430410000Y-149725000D01*
%TO.C,D53*%
X357627500Y-216132500D02*
X360827500Y-216132500D01*
X357627500Y-222932500D02*
X357627500Y-216132500D01*
X360827500Y-216132500D02*
X360827500Y-222932500D01*
X360827500Y-222932500D02*
X357627500Y-222932500D01*
%TO.C,D51*%
X314580000Y-158460000D02*
X317780000Y-158460000D01*
X314580000Y-165260000D02*
X314580000Y-158460000D01*
X317780000Y-158460000D02*
X317780000Y-165260000D01*
X317780000Y-165260000D02*
X314580000Y-165260000D01*
%TO.C,D54*%
X357367500Y-225282500D02*
X360567500Y-225282500D01*
X357367500Y-232082500D02*
X357367500Y-225282500D01*
X360567500Y-225282500D02*
X360567500Y-232082500D01*
X360567500Y-232082500D02*
X357367500Y-232082500D01*
%TO.C,D43*%
X317990000Y-205265000D02*
X319890000Y-205265000D01*
X317990000Y-208625000D02*
X317990000Y-205265000D01*
X319890000Y-205265000D02*
X319890000Y-208625000D01*
X319890000Y-208625000D02*
X317990000Y-208625000D01*
%TO.C,D23*%
X361942500Y-149480000D02*
X363842500Y-149480000D01*
X361942500Y-152840000D02*
X361942500Y-149480000D01*
X363842500Y-149480000D02*
X363842500Y-152840000D01*
X363842500Y-152840000D02*
X361942500Y-152840000D01*
%TO.C,Q1*%
X429950000Y-223232500D02*
X429950000Y-227072500D01*
X429950000Y-227072500D02*
X433350000Y-227072500D01*
X433350000Y-223232500D02*
X429950000Y-223232500D01*
X433350000Y-227072500D02*
X433350000Y-223232500D01*
%TO.C,J11*%
X316640000Y-231240000D02*
X322740000Y-231240000D01*
X316640000Y-283040000D02*
X316640000Y-231240000D01*
X322740000Y-231240000D02*
X322740000Y-283040000D01*
X322740000Y-283040000D02*
X316640000Y-283040000D01*
%TO.C,R34*%
X318030000Y-201960000D02*
X319490000Y-201960000D01*
X318030000Y-204920000D02*
X318030000Y-201960000D01*
X319490000Y-201960000D02*
X319490000Y-204920000D01*
X319490000Y-204920000D02*
X318030000Y-204920000D01*
%TO.C,D49*%
X317920000Y-153430000D02*
X319820000Y-153430000D01*
X317920000Y-156790000D02*
X317920000Y-153430000D01*
X319820000Y-153430000D02*
X319820000Y-156790000D01*
X319820000Y-156790000D02*
X317920000Y-156790000D01*
%TO.C,D39*%
X495387500Y-224620000D02*
X498587500Y-224620000D01*
X495387500Y-231420000D02*
X495387500Y-224620000D01*
X498587500Y-224620000D02*
X498587500Y-231420000D01*
X498587500Y-231420000D02*
X495387500Y-231420000D01*
%TO.C,R37*%
X318040000Y-161120000D02*
X321000000Y-161120000D01*
X318040000Y-162580000D02*
X318040000Y-161120000D01*
X321000000Y-161120000D02*
X321000000Y-162580000D01*
X321000000Y-162580000D02*
X318040000Y-162580000D01*
%TO.C,D22*%
X430000000Y-219722500D02*
X431900000Y-219722500D01*
X430000000Y-223082500D02*
X430000000Y-219722500D01*
X431900000Y-219722500D02*
X431900000Y-223082500D01*
X431900000Y-223082500D02*
X430000000Y-223082500D01*
%TO.C,R47*%
X522780000Y-214202500D02*
X524240000Y-214202500D01*
X522780000Y-217162500D02*
X522780000Y-214202500D01*
X524240000Y-214202500D02*
X524240000Y-217162500D01*
X524240000Y-217162500D02*
X522780000Y-217162500D01*
%TO.C,R39*%
X317900000Y-150055000D02*
X319360000Y-150055000D01*
X317900000Y-153015000D02*
X317900000Y-150055000D01*
X319360000Y-150055000D02*
X319360000Y-153015000D01*
X319360000Y-153015000D02*
X317900000Y-153015000D01*
%TO.C,C12*%
X318200000Y-164090000D02*
X321160000Y-164090000D01*
X318200000Y-165550000D02*
X318200000Y-164090000D01*
X321160000Y-164090000D02*
X321160000Y-165550000D01*
X321160000Y-165550000D02*
X318200000Y-165550000D01*
%TO.C,C6*%
X464520000Y-229840000D02*
X467480000Y-229840000D01*
X464520000Y-231300000D02*
X464520000Y-229840000D01*
X467480000Y-229840000D02*
X467480000Y-231300000D01*
X467480000Y-231300000D02*
X464520000Y-231300000D01*
%TO.C,D25*%
X426517500Y-224750000D02*
X429717500Y-224750000D01*
X426517500Y-231550000D02*
X426517500Y-224750000D01*
X429717500Y-224750000D02*
X429717500Y-231550000D01*
X429717500Y-231550000D02*
X426517500Y-231550000D01*
%TO.C,Q12*%
X517967500Y-156222500D02*
X517967500Y-159622500D01*
X517967500Y-159622500D02*
X521807500Y-159622500D01*
X521807500Y-156222500D02*
X517967500Y-156222500D01*
X521807500Y-159622500D02*
X521807500Y-156222500D01*
%TO.C,Q11*%
X360750000Y-223822500D02*
X360750000Y-227662500D01*
X360750000Y-227662500D02*
X364150000Y-227662500D01*
X364150000Y-223822500D02*
X360750000Y-223822500D01*
X364150000Y-227662500D02*
X364150000Y-223822500D01*
%TO.C,K14*%
X442507500Y-264762500D02*
X462107500Y-264762500D01*
X442507500Y-280762500D02*
X442507500Y-264762500D01*
X462107500Y-264762500D02*
X462107500Y-280762500D01*
X462107500Y-280762500D02*
X442507500Y-280762500D01*
%TO.C,R31*%
X464725000Y-156440000D02*
X467685000Y-156440000D01*
X464725000Y-157900000D02*
X464725000Y-156440000D01*
X467685000Y-156440000D02*
X467685000Y-157900000D01*
X467685000Y-157900000D02*
X464725000Y-157900000D01*
%TO.C,C14*%
X525270000Y-156582500D02*
X526730000Y-156582500D01*
X525270000Y-159542500D02*
X525270000Y-156582500D01*
X526730000Y-156582500D02*
X526730000Y-159542500D01*
X526730000Y-159542500D02*
X525270000Y-159542500D01*
%TO.C,K5*%
X406487500Y-146170000D02*
X426087500Y-146170000D01*
X406487500Y-162170000D02*
X406487500Y-146170000D01*
X426087500Y-146170000D02*
X426087500Y-162170000D01*
X426087500Y-162170000D02*
X406487500Y-162170000D01*
%TO.C,D55*%
X514040000Y-157722500D02*
X517400000Y-157722500D01*
X514040000Y-159622500D02*
X514040000Y-157722500D01*
X517400000Y-157722500D02*
X517400000Y-159622500D01*
X517400000Y-159622500D02*
X514040000Y-159622500D01*
%TO.C,C11*%
X498475000Y-159640000D02*
X501435000Y-159640000D01*
X498475000Y-161100000D02*
X498475000Y-159640000D01*
X501435000Y-159640000D02*
X501435000Y-161100000D01*
X501435000Y-161100000D02*
X498475000Y-161100000D01*
%TO.C,Q6*%
X498840000Y-223052500D02*
X498840000Y-226892500D01*
X498840000Y-226892500D02*
X502240000Y-226892500D01*
X502240000Y-223052500D02*
X498840000Y-223052500D01*
X502240000Y-226892500D02*
X502240000Y-223052500D01*
%TO.C,R36*%
X498430000Y-146065000D02*
X499890000Y-146065000D01*
X498430000Y-149025000D02*
X498430000Y-146065000D01*
X499890000Y-146065000D02*
X499890000Y-149025000D01*
X499890000Y-149025000D02*
X498430000Y-149025000D01*
%TO.C,C9*%
X464665000Y-159250000D02*
X467625000Y-159250000D01*
X464665000Y-160710000D02*
X464665000Y-159250000D01*
X467625000Y-159250000D02*
X467625000Y-160710000D01*
X467625000Y-160710000D02*
X464665000Y-160710000D01*
%TO.C,K3*%
X372550000Y-146150000D02*
X392150000Y-146150000D01*
X372550000Y-162150000D02*
X372550000Y-146150000D01*
X392150000Y-146150000D02*
X392150000Y-162150000D01*
X392150000Y-162150000D02*
X372550000Y-162150000D01*
%TO.C,D28*%
X396442500Y-149530000D02*
X398342500Y-149530000D01*
X396442500Y-152890000D02*
X396442500Y-149530000D01*
X398342500Y-149530000D02*
X398342500Y-152890000D01*
X398342500Y-152890000D02*
X396442500Y-152890000D01*
%TO.C,Q4*%
X464530000Y-222872500D02*
X464530000Y-226712500D01*
X464530000Y-226712500D02*
X467930000Y-226712500D01*
X467930000Y-222872500D02*
X464530000Y-222872500D01*
X467930000Y-226712500D02*
X467930000Y-222872500D01*
%TO.C,D29*%
X464630000Y-219352500D02*
X466530000Y-219352500D01*
X464630000Y-222712500D02*
X464630000Y-219352500D01*
X466530000Y-219352500D02*
X466530000Y-222712500D01*
X466530000Y-222712500D02*
X464630000Y-222712500D01*
%TO.C,R44*%
X395830000Y-216405000D02*
X397290000Y-216405000D01*
X395830000Y-219365000D02*
X395830000Y-216405000D01*
X397290000Y-216405000D02*
X397290000Y-219365000D01*
X397290000Y-219365000D02*
X395830000Y-219365000D01*
%TO.C,D65*%
X511490000Y-217507500D02*
X518290000Y-217507500D01*
X511490000Y-220707500D02*
X511490000Y-217507500D01*
X518290000Y-217507500D02*
X518290000Y-220707500D01*
X518290000Y-220707500D02*
X511490000Y-220707500D01*
%TO.C,R46*%
X466450000Y-264807500D02*
X467910000Y-264807500D01*
X466450000Y-267767500D02*
X466450000Y-264807500D01*
X467910000Y-264807500D02*
X467910000Y-267767500D01*
X467910000Y-267767500D02*
X466450000Y-267767500D01*
%TO.C,D58*%
X395780000Y-219602500D02*
X397680000Y-219602500D01*
X395780000Y-222962500D02*
X395780000Y-219602500D01*
X397680000Y-219602500D02*
X397680000Y-222962500D01*
X397680000Y-222962500D02*
X395780000Y-222962500D01*
%TO.C,K9*%
X474600000Y-146100000D02*
X494200000Y-146100000D01*
X474600000Y-162100000D02*
X474600000Y-146100000D01*
X494200000Y-146100000D02*
X494200000Y-162100000D01*
X494200000Y-162100000D02*
X474600000Y-162100000D01*
%TO.C,R16*%
X464560000Y-226860000D02*
X467520000Y-226860000D01*
X464560000Y-228320000D02*
X464560000Y-226860000D01*
X467520000Y-226860000D02*
X467520000Y-228320000D01*
X467520000Y-228320000D02*
X464560000Y-228320000D01*
%TO.C,R11*%
X361982500Y-146030000D02*
X363442500Y-146030000D01*
X361982500Y-148990000D02*
X361982500Y-146030000D01*
X363442500Y-146030000D02*
X363442500Y-148990000D01*
X363442500Y-148990000D02*
X361982500Y-148990000D01*
%TO.C,Q8*%
X317940000Y-208842500D02*
X317940000Y-212682500D01*
X317940000Y-212682500D02*
X321340000Y-212682500D01*
X321340000Y-208842500D02*
X317940000Y-208842500D01*
X321340000Y-212682500D02*
X321340000Y-208842500D01*
%TO.C,D62*%
X462900000Y-264842500D02*
X466100000Y-264842500D01*
X462900000Y-271642500D02*
X462900000Y-264842500D01*
X466100000Y-264842500D02*
X466100000Y-271642500D01*
X466100000Y-271642500D02*
X462900000Y-271642500D01*
%TO.C,D59*%
X392337500Y-216160000D02*
X395537500Y-216160000D01*
X392337500Y-222960000D02*
X392337500Y-216160000D01*
X395537500Y-216160000D02*
X395537500Y-222960000D01*
X395537500Y-222960000D02*
X392337500Y-222960000D01*
%TO.C,K7*%
X440870000Y-146040000D02*
X460470000Y-146040000D01*
X440870000Y-162040000D02*
X440870000Y-146040000D01*
X460470000Y-146040000D02*
X460470000Y-162040000D01*
X460470000Y-162040000D02*
X440870000Y-162040000D01*
%TO.C,R48*%
X511440000Y-215607500D02*
X514400000Y-215607500D01*
X511440000Y-217067500D02*
X511440000Y-215607500D01*
X514400000Y-215607500D02*
X514400000Y-217067500D01*
X514400000Y-217067500D02*
X511440000Y-217067500D01*
%TO.C,R27*%
X498905000Y-227060000D02*
X501865000Y-227060000D01*
X498905000Y-228520000D02*
X498905000Y-227060000D01*
X501865000Y-227060000D02*
X501865000Y-228520000D01*
X501865000Y-228520000D02*
X498905000Y-228520000D01*
%TO.C,R5*%
X361910600Y-160730000D02*
X364870600Y-160730000D01*
X361910600Y-162190000D02*
X361910600Y-160730000D01*
X364870600Y-160730000D02*
X364870600Y-162190000D01*
X364870600Y-162190000D02*
X361910600Y-162190000D01*
%TO.C,C13*%
X360735000Y-230660000D02*
X363695000Y-230660000D01*
X360735000Y-232120000D02*
X360735000Y-230660000D01*
X363695000Y-230660000D02*
X363695000Y-232120000D01*
X363695000Y-232120000D02*
X360735000Y-232120000D01*
%TO.C,D37*%
X426797500Y-155230000D02*
X429997500Y-155230000D01*
X426797500Y-162030000D02*
X426797500Y-155230000D01*
X429997500Y-155230000D02*
X429997500Y-162030000D01*
X429997500Y-162030000D02*
X426797500Y-162030000D01*
%TO.C,C17*%
X525760000Y-214062500D02*
X527220000Y-214062500D01*
X525760000Y-217022500D02*
X525760000Y-214062500D01*
X527220000Y-214062500D02*
X527220000Y-217022500D01*
X527220000Y-217022500D02*
X525760000Y-217022500D01*
%TO.C,D66*%
X520507500Y-217427500D02*
X527307500Y-217427500D01*
X520507500Y-220627500D02*
X520507500Y-217427500D01*
X527307500Y-217427500D02*
X527307500Y-220627500D01*
X527307500Y-220627500D02*
X520507500Y-220627500D01*
%TO.C,D64*%
X514950000Y-215267500D02*
X518310000Y-215267500D01*
X514950000Y-217167500D02*
X514950000Y-215267500D01*
X518310000Y-215267500D02*
X518310000Y-217167500D01*
X518310000Y-217167500D02*
X514950000Y-217167500D01*
%TO.C,R4*%
X430005000Y-227180000D02*
X432965000Y-227180000D01*
X430005000Y-228640000D02*
X430005000Y-227180000D01*
X432965000Y-227180000D02*
X432965000Y-228640000D01*
X432965000Y-228640000D02*
X430005000Y-228640000D01*
%TO.C,D31*%
X392912500Y-155310000D02*
X396112500Y-155310000D01*
X392912500Y-162110000D02*
X392912500Y-155310000D01*
X396112500Y-155310000D02*
X396112500Y-162110000D01*
X396112500Y-162110000D02*
X392912500Y-162110000D01*
%TO.C,C4*%
X361950600Y-157520000D02*
X364910600Y-157520000D01*
X361950600Y-158980000D02*
X361950600Y-157520000D01*
X364910600Y-157520000D02*
X364910600Y-158980000D01*
X364910600Y-158980000D02*
X361950600Y-158980000D01*
%TO.C,D47*%
X495022500Y-146030000D02*
X498222500Y-146030000D01*
X495022500Y-152830000D02*
X495022500Y-146030000D01*
X498222500Y-146030000D02*
X498222500Y-152830000D01*
X498222500Y-152830000D02*
X495022500Y-152830000D01*
%TD*%
M02*
